<svg preserveAspectRatio="none" width="100%" height="100%" overflow="visible" style="display: block;" viewBox="0 0 110.399 32" fill="none" xmlns="http://www.w3.org/2000/svg">
<g id="Frame" clip-path="url(#clip0_0_4)">
<path id="Vector" d="M40.772 11.3907H36.8992V20.6078H38.8965V13.3879H39.4709L42.6606 20.6078H44.8443L40.772 11.3907Z" fill="var(--fill-0, white)"/>
<path id="Vector_2" d="M75.633 20.6081H77.6302V11.3909H75.633V20.6081Z" fill="var(--fill-0, white)"/>
<path id="Vector_3" d="M48.9165 11.3907L44.8447 20.6078H47.028L50.2177 13.3879H50.7921V20.6078H52.7894V11.3907H48.9165Z" fill="var(--fill-0, white)"/>
<path id="Vector_4" d="M61.7217 11.3907H58.0679L53.9957 20.6078H56.1793L57.506 17.6045H62.2836L63.6103 20.6078H65.7939L61.7217 11.3907ZM58.3885 15.6072L59.369 13.3879H60.4205L61.401 15.6072H58.3885Z" fill="var(--fill-0, white)"/>
<path id="Vector_5" d="M71.5599 11.3907H66.9477V20.6078H68.9449V13.3879H70.2587L73.4484 20.6078H75.6321L71.5599 11.3907Z" fill="var(--fill-0, white)"/>
<path id="Vector_6" d="M78.7374 11.3907V13.3879H83.3977V20.6078H85.3953V13.3879H90.0552V11.3907H78.7374Z" fill="var(--fill-0, white)"/>
<path id="Vector_7" d="M93.1633 11.39H91.1658V20.6071H99.8577V18.6098H93.1633V11.39Z" fill="var(--fill-0, white)"/>
<path id="Vector_8" d="M110.399 13.3872V11.39H100.967V20.6071H110.399V18.6098H102.965V16.864H109.41V14.8668H102.965V13.3872H110.399Z" fill="var(--fill-0, white)"/>
<path id="Vector_9" d="M6.01483 11.634L1.58422 9.37815C1.23766 10.059 0.942512 10.773 0.707649 11.5001L5.43858 13.0298C5.59319 12.5516 5.78662 12.0819 6.01483 11.634Z" fill="var(--fill-0, white)"/>
<path id="Vector_10" d="M9.77753 7.65855L12.2316 11.8869C12.59 11.6791 12.9736 11.5192 13.3726 11.4119L12.1025 6.6906C12.4257 6.60368 12.7542 6.53193 13.0845 6.47978L12.3041 1.56904C11.5492 1.68887 10.7991 1.86974 10.0742 2.10608L11.5917 6.75718C11.109 6.91475 10.639 7.1104 10.1862 7.34195L7.95559 2.98785C7.27726 3.33552 6.62112 3.73942 6.00455 4.18956L8.9357 8.20562C9.20569 8.00882 9.48825 7.82684 9.77753 7.65855Z" fill="var(--fill-0, white)"/>
<path id="Vector_11" d="M22.9467 11.1626L18.7199 13.619C18.9281 13.977 19.0879 14.3609 19.1956 14.7593L23.9165 13.4869C24.0034 13.8102 24.0752 14.1382 24.1277 14.4682L29.0376 13.6862C28.9175 12.9318 28.7362 12.1813 28.4992 11.456L23.8488 12.9765C23.6909 12.4938 23.4952 12.0241 23.2633 11.5714L27.6159 9.33775C27.2682 8.66015 26.8636 8.00399 26.4135 7.38777L22.3986 10.3209C22.5957 10.5909 22.7785 10.873 22.9467 11.1626Z" fill="var(--fill-0, white)"/>
<path id="Vector_12" d="M21.2234 2.96946C20.5417 2.62327 19.8279 2.32848 19.1015 2.09398L17.5743 6.82572C18.0521 6.97995 18.5219 7.17376 18.9705 7.4016L21.2234 2.96946Z" fill="var(--fill-0, white)"/>
<path id="Vector_13" d="M19.4574 7.57155L16.9753 11.8794C17.3348 12.0865 17.6662 12.3403 17.9609 12.6339L24.9226 5.6486C24.3826 5.11044 23.7959 4.61075 23.179 4.16321L20.3077 8.12302C20.034 7.92477 19.7503 7.74058 19.4574 7.57155Z" fill="var(--fill-0, white)"/>
<path id="Vector_14" d="M6.18698 11.1471L10.4937 13.6319C10.7008 13.2727 10.9553 12.941 11.2493 12.6458L4.26702 5.68155C3.7285 6.22156 3.22844 6.80779 2.7809 7.42436L6.73919 10.2975C6.54094 10.5708 6.35601 10.8542 6.18698 11.1471Z" fill="var(--fill-0, white)"/>
<path id="Vector_15" d="M16.1178 6.39646L16.869 1.56264C16.1267 1.44724 15.367 1.3888 14.6106 1.3888H14.5992V11.251H14.6106C15.0264 11.251 15.4377 11.3043 15.8334 11.4093L17.1087 6.60358C16.7824 6.51703 16.4518 6.44861 16.1178 6.39646Z" fill="var(--fill-0, white)"/>
<path id="Vector_16" d="M10.0216 14.774L5.21661 13.4954C5.12969 13.8216 5.0609 14.1523 5.00875 14.4863L0.175728 13.7328C0.0595908 14.4778 0.000782345 15.2404 0.000782345 15.9991H9.86283C9.86283 15.5826 9.91619 15.1702 10.0216 14.774Z" fill="var(--fill-0, white)"/>
<path id="Vector_17" d="M23.2066 20.3638L27.6372 22.6196C27.9838 21.9387 28.2789 21.2248 28.5138 20.4977L23.7829 18.9679C23.6282 19.4461 23.4349 19.9159 23.2066 20.3638Z" fill="var(--fill-0, white)"/>
<path id="Vector_18" d="M19.4429 24.3376L16.9889 20.1093C16.6305 20.3171 16.247 20.4769 15.8479 20.5842L17.118 25.3055C16.7943 25.3925 16.4662 25.4643 16.136 25.5164L16.916 30.4267C17.671 30.3069 18.421 30.126 19.146 29.8897L17.6284 25.2386C18.1114 25.0811 18.5812 24.8854 19.0339 24.6539L21.2645 29.0079C21.9428 28.6603 22.599 28.2563 23.2155 27.8063L20.2844 23.7902C20.0144 23.987 19.7322 24.1693 19.4429 24.3376Z" fill="var(--fill-0, white)"/>
<path id="Vector_19" d="M6.27479 20.8358L10.502 18.3795C10.2938 18.0215 10.1339 17.6375 10.0263 17.2392L5.30538 18.5115C5.21846 18.1883 5.14671 17.8602 5.09419 17.5303L0.183863 18.3122C0.30407 19.0667 0.485303 19.8172 0.722386 20.5425L5.3727 19.0219C5.53062 19.5047 5.72629 19.9744 5.95819 20.4271L1.60563 22.6607C1.95329 23.3383 2.35793 23.9945 2.80805 24.6107L6.82294 21.6776C6.6258 21.4076 6.44308 21.1254 6.27479 20.8358Z" fill="var(--fill-0, white)"/>
<path id="Vector_20" d="M7.9978 29.0285C8.67944 29.3748 9.39327 29.6695 10.1197 29.904L11.6469 25.1723C11.169 25.018 10.6993 24.8242 10.2506 24.5964L7.9978 29.0285Z" fill="var(--fill-0, white)"/>
<path id="Vector_21" d="M9.76202 24.4263L12.2442 20.1185C11.8847 19.9114 11.5533 19.6576 11.2585 19.364L4.29693 26.3493C4.83693 26.8874 5.42354 27.3871 6.04047 27.8347L8.91171 23.8749C9.18547 24.0731 9.46906 24.2573 9.76202 24.4263Z" fill="var(--fill-0, white)"/>
<path id="Vector_22" d="M23.0349 20.8517L18.7282 18.367C18.5211 18.7261 18.2666 19.0579 17.9726 19.353L24.9545 26.3176C25.4931 25.7776 25.9931 25.1914 26.4407 24.5748L22.4823 21.7017C22.6806 21.4283 22.8659 21.1447 23.0349 20.8517Z" fill="var(--fill-0, white)"/>
<path id="Vector_23" d="M13.3882 20.5871L12.113 25.3928C12.4392 25.4793 12.7698 25.5478 13.1038 25.5999L12.353 30.4337C13.0953 30.5491 13.855 30.6075 14.6114 30.6075H14.6228V20.7454H14.6114C14.1957 20.7454 13.784 20.6921 13.3882 20.5871Z" fill="var(--fill-0, white)"/>
<path id="Vector_24" d="M19.3587 16.0003C19.3587 16.4168 19.3051 16.8288 19.1996 17.2252L24.0046 18.5039C24.0915 18.1776 24.1603 17.847 24.2124 17.513L29.0459 18.2668C29.1619 17.5219 29.2207 16.7592 29.2207 16.0006L19.3587 16.0003Z" fill="var(--fill-0, white)"/>
</g>
<defs>
<clipPath id="clip0_0_4">
<rect width="110.399" height="32" fill="white"/>
</clipPath>
</defs>
</svg>
