<svg width="228" height="20" viewBox="0 0 228 20" fill="none" xmlns="http://www.w3.org/2000/svg">
<path d="M28.0274 19.4797C27.7098 19.4797 27.4715 19.4136 27.3127 19.2812C27.1628 19.1577 27.0878 19.0033 27.0878 18.818C27.0878 18.5975 27.1804 18.3681 27.3657 18.1299C27.5509 17.8917 27.8112 17.7064 28.1465 17.5741C28.5523 17.4153 28.9934 17.0668 29.4698 16.5286C29.955 15.9817 30.4535 15.32 30.9652 14.5436C31.4769 13.7672 31.993 12.9027 32.5135 11.9498C33.0429 10.997 33.5501 10.031 34.0354 9.0517C34.5294 8.07242 34.9882 7.1152 35.4117 6.18003C35.844 5.23604 36.2277 4.38468 36.563 3.62596C36.9247 2.79666 37.207 2.14381 37.4099 1.6674C37.6128 1.19099 37.7408 0.895445 37.7937 0.780754C37.9172 0.507261 38.0892 0.308759 38.3098 0.185246C38.5304 0.0617329 38.7553 -2.3569e-05 38.9847 -2.3569e-05C39.3023 -2.3569e-05 39.5449 0.0881999 39.7126 0.264647C39.8802 0.432271 39.9772 0.736642 40.0037 1.17776C40.0566 2.07764 40.0963 2.86283 40.1228 3.53333C40.1493 4.20382 40.1669 4.87873 40.1757 5.55806C40.1934 6.22855 40.2022 7.0358 40.2022 7.97979V9.81925C40.2022 10.1545 40.1934 10.5118 40.1757 10.8912C40.1669 11.2617 40.1625 11.6543 40.1625 12.0689C41.2212 10.1457 42.1563 8.44737 42.968 6.97404C43.7885 5.50071 44.5031 4.26999 45.1118 3.28189C45.6147 2.44377 46.0911 1.73357 46.5411 1.15129C46.991 0.569018 47.3527 0.27788 47.6262 0.27788H47.7188L47.7982 0.264647H47.8776C48.0894 0.264647 48.257 0.396982 48.3805 0.661652C48.504 0.926323 48.5658 1.27039 48.5658 1.69387C48.5128 2.32025 48.4246 3.1672 48.3011 4.2347C48.1776 5.29338 48.032 6.50646 47.8644 7.87392C47.7056 9.17081 47.5468 10.4456 47.388 11.6984C47.238 12.9512 47.1145 14.0628 47.0175 15.0333C47.0086 15.095 46.9998 15.1524 46.991 15.2053C46.9822 15.2582 46.9822 15.3156 46.991 15.3773L47.1366 17.1374C47.1718 17.4903 47.1454 17.8432 47.0572 18.1961C46.9689 18.5401 46.7748 18.8269 46.4749 19.0562C46.1837 19.2856 45.7382 19.4003 45.1383 19.4003C44.9001 19.4003 44.7104 19.3077 44.5693 19.1224C44.4281 18.946 44.3575 18.624 44.3575 18.1564C44.4281 17.4682 44.5207 16.6257 44.6354 15.6288C44.7501 14.6318 44.8736 13.5643 45.006 12.4263C45.1471 11.2882 45.2883 10.1633 45.4294 9.0517C45.5706 7.94009 45.7029 6.92552 45.8264 6.00799L43.0606 11.3014C42.6283 12.1219 42.2313 12.863 41.8696 13.5246C41.5167 14.1863 41.23 14.7201 41.0094 15.1259C40.6124 15.6641 40.211 16.1405 39.8052 16.5551C39.3994 16.9609 39.0112 17.1639 38.6406 17.1639C38.2789 17.1639 38.0628 17.0668 37.9922 16.8727C37.9216 16.6698 37.8819 16.4713 37.8731 16.2772C37.8202 15.0244 37.7805 13.7628 37.754 12.4924C37.7363 11.2132 37.7275 9.956 37.7275 8.72087V6.98728C37.1894 8.21358 36.5894 9.47077 35.9278 10.7588C35.2749 12.0469 34.5956 13.26 33.8898 14.398C33.184 15.545 32.4694 16.5419 31.746 17.3888C31.0225 18.2358 30.3476 18.7916 29.7212 19.0562C29.3507 19.2062 29.0287 19.3121 28.7552 19.3739C28.4817 19.4444 28.2391 19.4797 28.0274 19.4797ZM52.6809 19.4268C52.328 19.4268 51.9266 19.3297 51.4766 19.1356C51.0355 18.9504 50.6517 18.6504 50.3253 18.2358C49.9989 17.8211 49.8357 17.2741 49.8357 16.5948C49.8357 16.0478 49.9636 15.3773 50.2194 14.5833C50.4841 13.7893 50.8855 13.0041 51.4237 12.2277C51.9707 11.4426 52.6721 10.7897 53.5278 10.2692C54.3836 9.73985 55.3761 9.47518 56.5054 9.47518C56.9553 9.47518 57.4317 9.55899 57.9346 9.72661C58.4463 9.89424 58.883 10.1766 59.2447 10.5736C59.6064 10.9617 59.7873 11.4999 59.7873 12.188C59.7873 12.7527 59.6461 13.4099 59.3638 14.1598C59.5226 14.3539 59.7476 14.451 60.0387 14.451C60.3122 14.451 60.6298 14.3407 60.9915 14.1201C61.3532 13.8996 61.7105 13.6305 62.0634 13.3129C62.4252 12.9953 62.7516 12.6777 63.0427 12.3601C63.3427 12.0425 63.5765 11.7866 63.7441 11.5925C63.8059 11.5308 63.8808 11.4999 63.9691 11.4999C64.1632 11.4999 64.3043 11.6234 64.3925 11.8704C64.4808 12.1175 64.4631 12.4307 64.3396 12.81C64.2161 13.1806 63.9294 13.5643 63.4794 13.9613C63.2148 14.2437 62.8883 14.5921 62.5001 15.0068C62.1208 15.4126 61.7061 15.7743 61.2562 16.0919C60.8151 16.4007 60.3651 16.5551 59.9064 16.5551C59.4388 16.5551 58.9977 16.4051 58.583 16.1052C57.9302 17.1286 57.1009 17.9402 56.0951 18.5401C55.0894 19.1312 53.9513 19.4268 52.6809 19.4268ZM53.8322 17.1109C54.388 17.1109 54.9085 16.9256 55.3937 16.5551C55.879 16.1846 56.2716 15.717 56.5715 15.1524C56.8715 14.5877 57.0215 14.0099 57.0215 13.4188C57.0215 13.1894 56.995 12.9512 56.9421 12.7042C56.898 12.4483 56.7921 12.2366 56.6245 12.0689C56.4568 11.8925 56.1878 11.8043 55.8172 11.8043C55.2702 11.8043 54.7541 11.9807 54.2689 12.3336C53.7837 12.6777 53.3867 13.1276 53.0779 13.6834C52.7779 14.2304 52.6279 14.8039 52.6279 15.4038C52.6279 15.6244 52.6544 15.8714 52.7073 16.1449C52.7603 16.4095 52.8706 16.6389 53.0382 16.833C53.2146 17.0183 53.4793 17.1109 53.8322 17.1109ZM62.3408 19.4268C62.032 19.4268 61.7894 19.3297 61.613 19.1356C61.4365 18.9416 61.3483 18.7034 61.3483 18.421C61.3483 18.1917 61.4806 17.7638 61.7453 17.1374C62.01 16.5022 62.3188 15.8229 62.6717 15.0994C63.1216 14.1554 63.5186 13.3394 63.8627 12.6512C64.2067 11.9543 64.4626 11.4249 64.6302 11.0632C64.8067 10.6838 65.0272 10.4015 65.2919 10.2163C65.5566 10.031 65.8168 9.93835 66.0727 9.93835C66.2844 9.93835 66.4741 10.0178 66.6417 10.1766C66.8093 10.3265 66.8931 10.5515 66.8931 10.8515C66.8931 10.9662 66.8799 11.0897 66.8534 11.222C66.827 11.3543 66.7785 11.4955 66.7079 11.6455C66.9814 11.3014 67.3872 10.9662 67.9254 10.6397C68.4635 10.3045 69.0458 10.0266 69.6722 9.80602C70.2986 9.58546 70.8764 9.47518 71.4058 9.47518C71.8734 9.47518 72.2615 9.58987 72.5703 9.81925C72.8879 10.0398 73.0467 10.4192 73.0467 10.9573C73.0467 11.4161 72.9453 11.9146 72.7424 12.4527C72.5395 12.9821 72.2968 13.4938 72.0145 13.9878C71.7146 14.5083 71.4322 14.9671 71.1676 15.3641C70.9117 15.7523 70.7132 16.0743 70.5721 16.3301C70.4574 16.4713 70.4 16.6345 70.4 16.8198C70.4 16.9962 70.4927 17.0845 70.6779 17.0845C70.7397 17.0845 70.8103 17.08 70.8897 17.0712C70.9691 17.0536 71.0661 17.0051 71.1808 16.9256C71.8425 16.6786 72.4997 16.3654 73.1526 15.9861C73.8143 15.6067 74.4186 15.2141 74.9656 14.8083C75.5214 14.4025 75.9669 14.0452 76.3022 13.7364C76.4433 13.6217 76.5801 13.5643 76.7124 13.5643C77.03 13.5643 77.1888 13.7672 77.1888 14.1731C77.1888 14.4466 77.1006 14.7509 76.9242 15.0862C76.7565 15.4214 76.4875 15.7346 76.1169 16.0258C75.4729 16.4845 74.8686 16.9124 74.3039 17.3094C73.7481 17.6976 73.157 18.0505 72.5306 18.3681C71.9042 18.6857 71.1588 18.968 70.2942 19.215C69.8442 19.3562 69.4605 19.4268 69.1428 19.4268C68.243 19.4268 67.793 18.9327 67.793 17.9446C67.793 17.8829 67.793 17.8255 67.793 17.7726C67.8018 17.7108 67.8107 17.6447 67.8195 17.5741C67.846 17.1771 67.9871 16.7183 68.243 16.1978C68.4988 15.6685 68.7767 15.1479 69.0767 14.6363C69.3766 14.1422 69.6457 13.679 69.8839 13.2467C70.1221 12.8144 70.2412 12.4924 70.2412 12.2807C70.2412 11.9631 70.0912 11.8043 69.7913 11.8043C69.2355 11.8043 68.7017 11.9675 68.19 12.2939C67.6872 12.6203 67.2108 13.035 66.7608 13.5379C66.3197 14.0319 65.9139 14.5524 65.5433 15.0994C65.1728 15.6376 64.8464 16.1272 64.564 16.5683C64.3611 16.9036 64.1626 17.2962 63.9685 17.7461C63.7833 18.1961 63.5627 18.5887 63.3069 18.9239C63.0598 19.2592 62.7378 19.4268 62.3408 19.4268ZM77.7176 19.4268C77.4177 19.4268 77.0604 19.343 76.6457 19.1753C76.2311 19.0077 75.8649 18.7298 75.5473 18.3416C75.2386 17.9535 75.0842 17.4329 75.0842 16.7801C75.0842 16.2331 75.2077 15.5494 75.4547 14.7289C75.7017 13.9084 76.0899 13.1012 76.6193 12.3072C77.1486 11.4955 77.8235 10.8206 78.644 10.2824C79.4733 9.74426 80.4305 9.47518 81.5157 9.47518C81.9038 9.47518 82.2435 9.5237 82.5346 9.62075C82.8258 9.71779 83.0728 9.82366 83.2757 9.93835C83.3904 10.0089 83.4963 10.0839 83.5933 10.1633C83.6992 10.2339 83.7962 10.3133 83.8845 10.4015L84.3476 10.1766C84.48 10.1148 84.6167 10.0619 84.7579 10.0178C84.9079 9.96482 85.0358 9.93835 85.1416 9.93835C85.4769 9.93835 85.7504 10.031 85.9621 10.2163C86.1739 10.4015 86.2797 10.6044 86.2797 10.825C86.2797 10.8956 86.2753 10.9441 86.2665 10.9706C86.2047 11.2176 86.09 11.5573 85.9224 11.9895C85.7636 12.4218 85.5916 12.9027 85.4063 13.432C85.221 13.9437 85.0622 14.4377 84.9299 14.9142C84.8064 15.3906 84.7446 15.7832 84.7446 16.0919C84.7446 16.3566 84.7888 16.5772 84.877 16.7536C84.9652 16.9212 85.1152 17.0051 85.3269 17.0051C85.5828 17.0051 85.9268 16.8595 86.3591 16.5683C86.7914 16.2684 87.237 15.9155 87.6957 15.5097C87.9427 15.2891 88.1986 15.0553 88.4633 14.8083C88.7279 14.5524 88.997 14.2834 89.2705 14.001C89.4117 13.8864 89.5484 13.829 89.6807 13.829C89.8572 13.829 90.0028 13.9172 90.1174 14.0937C90.241 14.2613 90.3027 14.451 90.3027 14.6627C90.3027 14.9097 90.2189 15.1171 90.0513 15.2847C89.6984 15.6111 89.3367 15.9596 88.9661 16.3301C88.5956 16.7007 88.0839 17.155 87.431 17.6932C86.8488 18.1696 86.2488 18.5798 85.6313 18.9239C85.0137 19.2592 84.4579 19.4268 83.9639 19.4268C83.3463 19.4268 82.8964 19.1886 82.614 18.7122C82.3317 18.2269 82.1906 17.7108 82.1906 17.1639C82.1906 16.7668 82.2479 16.414 82.3626 16.1052C82.0009 16.5904 81.573 17.0933 81.079 17.6138C80.5849 18.1255 80.0512 18.5578 79.4777 18.9107C78.9042 19.2547 78.3176 19.4268 77.7176 19.4268ZM78.7763 17.0977C79.0586 17.0977 79.4115 16.9168 79.835 16.5551C80.2673 16.1934 80.6819 15.7699 81.079 15.2847C81.5201 14.7554 81.8686 14.2745 82.1244 13.8422C82.3803 13.4099 82.5082 13.1188 82.5082 12.9688C82.5082 12.6336 82.3141 12.3689 81.9259 12.1748C81.5377 11.9719 81.1892 11.8704 80.8805 11.8704C80.3335 11.8704 79.8129 12.0469 79.3189 12.3998C78.8337 12.7527 78.4367 13.207 78.1279 13.7628C77.8191 14.3098 77.6647 14.8789 77.6647 15.47C77.6647 15.814 77.7265 16.1713 77.85 16.5419C77.9823 16.9124 78.2911 17.0977 78.7763 17.0977ZM90.7786 19.4268C90.1346 19.4268 89.6008 19.2459 89.1773 18.8842C88.7539 18.5137 88.5421 17.9005 88.5421 17.0448C88.5421 15.9596 88.7847 14.945 89.27 14.001C89.7552 13.0571 90.3684 12.2498 91.1094 11.5793C91.8417 10.9088 92.6136 10.3927 93.4253 10.031C94.2458 9.66045 94.978 9.47518 95.6221 9.47518C96.1426 9.47518 96.5749 9.55899 96.9189 9.72661C97.113 9.83248 97.2763 9.95158 97.4086 10.0839L97.5145 9.85895L97.7527 9.30314L97.8982 8.9723C97.9159 8.90172 98.0306 8.61941 98.2423 8.12536C98.454 7.63131 98.7364 6.96522 99.0892 6.1271C99.4157 5.35073 99.6848 4.69347 99.8965 4.1553C100.108 3.60832 100.219 3.31718 100.227 3.28189C100.351 2.84077 100.558 2.44818 100.849 2.10411C101.14 1.76003 101.533 1.588 102.027 1.588C102.362 1.588 102.64 1.66299 102.861 1.81297C103.081 1.95413 103.192 2.23203 103.192 2.64668C103.192 2.96429 103.121 3.30395 102.98 3.66566C102.839 4.02738 102.715 4.34939 102.609 4.63171C102.186 5.47865 101.727 6.41823 101.233 7.45045C100.748 8.48266 100.263 9.54135 99.7774 10.6265C99.2922 11.7116 98.8334 12.7571 98.4011 13.7628C97.9688 14.7598 97.5939 15.642 97.2763 16.4095C97.2674 16.4184 97.263 16.4404 97.263 16.4757C97.263 16.511 97.2586 16.5331 97.2498 16.5419C97.2498 16.7007 97.2895 16.8683 97.3689 17.0448C97.4483 17.2124 97.5762 17.2962 97.7527 17.2962C97.8056 17.2962 97.8585 17.2874 97.9115 17.2697C98.5643 17.0756 99.2348 16.736 99.923 16.2507C100.611 15.7655 101.246 15.245 101.829 14.6892C102.42 14.1246 102.892 13.6305 103.245 13.207C103.368 13.0571 103.505 12.9821 103.655 12.9821C103.787 12.9821 103.902 13.0438 103.999 13.1673C104.105 13.2908 104.158 13.4585 104.158 13.6702C104.158 13.8378 104.109 14.0363 104.012 14.2657C103.924 14.4951 103.774 14.7421 103.562 15.0068C102.874 15.7655 102.159 16.4845 101.418 17.1639C100.677 17.8344 99.9362 18.3813 99.1951 18.8048C98.454 19.2195 97.7306 19.4268 97.0248 19.4268C96.3808 19.4268 95.8735 19.2459 95.503 18.8842C95.1324 18.5137 94.9472 17.9623 94.9472 17.23V17.0845C94.9472 17.0227 94.9516 16.9786 94.9604 16.9521C94.5546 17.6844 93.9458 18.2799 93.1342 18.7386C92.3313 19.1974 91.5461 19.4268 90.7786 19.4268ZM91.7579 17.0845C92.296 17.0845 92.8077 16.9212 93.293 16.5948C93.7782 16.2684 94.2237 15.8493 94.6295 15.3376C95.0354 14.8259 95.3883 14.2922 95.6882 13.7364C95.997 13.1806 96.2484 12.6733 96.4425 12.2145L96.6278 11.8043L96.8792 11.2352C96.3587 11.2441 95.8029 11.3587 95.2118 11.5793C94.1973 11.9234 93.3106 12.5321 92.5519 13.4055C91.802 14.2701 91.3873 15.32 91.3079 16.5551C91.3079 16.908 91.4579 17.0845 91.7579 17.0845ZM112.547 19.5988C112.194 19.5988 111.916 19.4841 111.713 19.2547C111.51 19.0342 111.409 18.7607 111.409 18.4343C111.409 18.1784 111.453 17.9314 111.541 17.6932C111.629 17.455 111.744 17.2344 111.885 17.0315L117.324 6.21973C117.783 5.50512 118.237 5.0243 118.687 4.77728C119.146 4.52143 119.499 4.39351 119.746 4.39351C120.143 4.39351 120.425 4.5082 120.593 4.73758C120.76 4.96696 120.844 5.24045 120.844 5.55806C120.844 6.07857 120.681 6.61674 120.354 7.17254C120.072 7.69306 119.755 8.27534 119.402 8.91937C119.049 9.55458 118.555 10.4324 117.919 11.5528C117.328 12.5762 116.728 13.5687 116.12 14.5304C115.52 15.4832 114.938 16.3434 114.373 17.1109C115.767 16.9698 117.099 16.5198 118.369 15.7611C119.64 15.0024 120.76 14.076 121.731 12.9821C122.692 11.9057 123.442 10.7677 123.98 9.56781C124.527 8.35915 124.801 7.24753 124.801 6.23296C124.801 5.05077 124.505 4.08031 123.914 3.32159C123.323 2.56287 122.41 2.18351 121.175 2.18351C120.416 2.18351 119.653 2.27614 118.886 2.46141C118.127 2.64668 117.425 2.89812 116.781 3.21572C116.137 3.5245 115.604 3.87299 115.18 4.26117C114.774 4.70229 114.461 5.08606 114.241 5.41249C114.029 5.73891 113.769 6.09181 113.46 6.47117C113.195 6.77995 112.913 7.03139 112.613 7.22548C112.313 7.41957 111.96 7.51662 111.554 7.51662C110.795 7.51662 110.416 7.18137 110.416 6.51087C110.416 5.86684 110.712 5.16987 111.303 4.41997C111.903 3.67007 112.71 2.95987 113.724 2.28938C114.73 1.6277 115.899 1.08071 117.231 0.648419C118.564 0.216124 119.944 -2.3569e-05 121.373 -2.3569e-05C122.891 -2.3569e-05 124.139 0.291114 125.119 0.873389C126.107 1.44684 126.839 2.22762 127.315 3.21572C127.801 4.20382 128.043 5.30662 128.043 6.5241C128.043 7.75041 127.765 9.04288 127.209 10.4015C126.662 11.7513 125.855 13.0438 124.788 14.2789C123.729 15.5053 122.437 16.5595 120.91 17.4418C119.763 18.1034 118.489 18.6284 117.086 19.0165C115.683 19.4047 114.17 19.5988 112.547 19.5988ZM130.835 19.4268C130.129 19.4268 129.525 19.2547 129.022 18.9107C128.528 18.5578 128.148 18.099 127.884 17.5344C127.628 16.9609 127.5 16.3478 127.5 15.6949C127.5 15.1215 127.663 14.4819 127.99 13.7761C128.325 13.0615 128.801 12.3777 129.419 11.7249C130.036 11.072 130.773 10.5339 131.629 10.1104C132.493 9.67809 133.433 9.46194 134.448 9.46194C135.18 9.46194 135.727 9.63839 136.089 9.99128C136.45 10.3442 136.631 10.8338 136.631 11.4602C136.631 11.8307 136.534 12.2189 136.34 12.6248C136.146 13.0306 135.811 13.4408 135.334 13.8555C134.858 14.2789 134.218 14.7112 133.415 15.1524C132.621 15.5847 131.624 16.0214 130.425 16.4625C130.522 17.0095 130.963 17.283 131.748 17.283C132.357 17.283 133.014 17.1594 133.72 16.9124C134.426 16.6566 135.105 16.3654 135.758 16.039C136.411 15.7214 136.971 15.4214 137.438 15.1391C137.906 14.8568 138.184 14.698 138.272 14.6627C138.352 14.6098 138.422 14.5789 138.484 14.5701C138.554 14.5613 138.616 14.5568 138.669 14.5568C138.881 14.5568 139.026 14.6407 139.106 14.8083C139.194 14.9671 139.238 15.0994 139.238 15.2053C139.238 15.2847 139.229 15.3817 139.212 15.4964C139.194 15.6023 139.128 15.7258 139.013 15.867C138.899 15.9817 138.563 16.2331 138.007 16.6213C137.452 17.0095 136.856 17.3844 136.221 17.7461C135.445 18.1784 134.58 18.5666 133.627 18.9107C132.674 19.2547 131.744 19.4268 130.835 19.4268ZM130.226 14.9406C130.8 14.6407 131.382 14.2922 131.973 13.8952C132.573 13.4893 133.027 13.1938 133.336 13.0085C133.751 12.7439 134.024 12.5101 134.156 12.3072C134.306 12.0866 134.381 11.9013 134.381 11.7513C134.381 11.619 134.337 11.5131 134.249 11.4337C134.17 11.3543 134.077 11.3058 133.971 11.2882L133.852 11.2749H133.733C133.248 11.2749 132.798 11.4161 132.383 11.6984C131.977 11.9719 131.633 12.316 131.351 12.7306C131.051 13.1629 130.808 13.5687 130.623 13.9481C130.447 14.3275 130.314 14.6583 130.226 14.9406ZM140.31 19.4268C139.692 19.4268 139.149 19.2062 138.682 18.7651C138.214 18.3152 137.98 17.6623 137.98 16.8065C137.98 16.1096 138.077 15.3509 138.272 14.5304C138.466 13.7011 138.682 12.9247 138.92 12.2013C139.158 11.469 139.344 10.9044 139.476 10.5074C139.652 10.1369 139.873 9.87218 140.138 9.71338C140.411 9.54576 140.676 9.46194 140.932 9.46194C141.161 9.46194 141.386 9.53693 141.606 9.68691C141.827 9.83689 141.937 10.0266 141.937 10.256C141.937 10.3618 141.92 10.4456 141.884 10.5074C141.708 11.0808 141.496 11.7072 141.249 12.3866C141.011 13.0571 140.799 13.7231 140.614 14.3848C140.429 15.0465 140.336 15.6464 140.336 16.1846C140.336 16.3169 140.367 16.4978 140.429 16.7271C140.49 16.9477 140.574 17.058 140.68 17.058C140.909 17.058 141.165 16.9301 141.448 16.6742C141.73 16.4184 142.039 16.0655 142.374 15.6155C142.797 15.1744 143.194 14.6098 143.565 13.9216C143.944 13.2247 144.297 12.5586 144.624 11.9234C144.941 11.297 145.254 10.7632 145.563 10.3221C145.872 9.87218 146.181 9.64721 146.49 9.64721C146.851 9.64721 147.107 9.76631 147.257 10.0045C147.407 10.2339 147.482 10.5118 147.482 10.8382C147.482 11.3323 147.367 11.8043 147.138 12.2542C146.909 12.7042 146.618 13.1762 146.265 13.6702C145.921 14.1643 145.563 14.7245 145.193 15.3509C145.343 15.5361 145.563 15.6288 145.854 15.6288C146.516 15.6288 147.187 15.4744 147.866 15.1656C148.545 14.848 149.194 14.4466 149.811 13.9613C149.944 13.8819 150.067 13.8422 150.182 13.8422C150.341 13.8422 150.468 13.9128 150.566 14.054C150.671 14.1951 150.724 14.376 150.724 14.5966C150.724 14.8348 150.654 15.095 150.513 15.3773C150.371 15.6508 150.138 15.9023 149.811 16.1316C149.15 16.6345 148.488 17.0315 147.826 17.3227C147.165 17.605 146.432 17.7461 145.629 17.7461C145.365 17.7461 145.109 17.6976 144.862 17.6006C144.615 17.5035 144.293 17.3315 143.896 17.0845C143.314 17.852 142.727 18.4343 142.136 18.8313C141.553 19.2283 140.945 19.4268 140.31 19.4268ZM154.641 19.3871C153 19.3871 151.822 19.0121 151.108 18.2622C150.393 17.5123 150.036 16.5551 150.036 15.3906C150.036 14.4289 150.203 13.4232 150.539 12.3733C150.883 11.3146 151.346 10.2648 151.928 9.22374C152.519 8.17388 153.19 7.16813 153.94 6.2065C154.698 5.23604 155.492 4.35822 156.322 3.57303C157.151 2.77902 157.976 2.11734 158.796 1.588C159.564 1.09395 160.336 0.705764 161.112 0.423449C161.888 0.141134 162.652 -2.3569e-05 163.402 -2.3569e-05C164.151 -2.3569e-05 164.795 0.176423 165.334 0.529317C165.881 0.882211 166.154 1.49978 166.154 2.38201C166.154 2.74373 166.07 3.19808 165.903 3.74506C165.744 4.28323 165.514 4.82139 165.215 5.35955C164.906 5.91536 164.535 6.37853 164.103 6.74907C163.679 7.11079 163.221 7.29165 162.727 7.29165C162.55 7.29165 162.312 7.25195 162.012 7.17254C161.712 7.09314 161.562 6.89464 161.562 6.57704C161.562 6.47117 161.589 6.34766 161.641 6.2065C161.703 6.06534 161.809 5.90213 161.959 5.71686C162.171 5.48748 162.396 5.20516 162.634 4.86991C162.872 4.52584 163.075 4.17295 163.243 3.81123C163.419 3.44951 163.507 3.13191 163.507 2.85842C163.507 2.29379 163.243 2.01147 162.713 2.01147C162.334 2.01147 161.906 2.13498 161.43 2.38201C160.953 2.62904 160.455 2.9687 159.934 3.40099C159.405 3.83329 158.832 4.38909 158.214 5.06841C157.605 5.73891 157.001 6.4844 156.401 7.30488C155.801 8.11654 155.254 8.95466 154.76 9.81925C154.266 10.6838 153.869 11.5352 153.569 12.3733C153.278 13.2026 153.132 13.9658 153.132 14.6627C153.132 15.3067 153.304 15.8229 153.648 16.211C153.992 16.5992 154.562 16.7933 155.356 16.7933C155.885 16.7933 156.458 16.661 157.076 16.3963C157.702 16.1316 158.337 15.7964 158.982 15.3906C159.634 14.9759 160.265 14.548 160.874 14.1069C161.491 13.6658 162.056 13.2644 162.568 12.9027C163.088 12.5409 163.529 12.2807 163.891 12.1219C163.926 12.0866 163.979 12.0689 164.05 12.0689C164.182 12.0689 164.275 12.1748 164.328 12.3866C164.372 12.6336 164.394 12.8806 164.394 13.1276C164.394 13.2776 164.372 13.4629 164.328 13.6834C164.293 13.8952 164.169 14.1422 163.957 14.4245C163.384 15.1127 162.709 15.7567 161.933 16.3566C161.156 16.9565 160.34 17.4859 159.484 17.9446C158.629 18.3946 157.782 18.7475 156.944 19.0033C156.114 19.2592 155.347 19.3871 154.641 19.3871ZM165.862 19.4268C165.562 19.4268 165.205 19.343 164.791 19.1753C164.376 19.0077 164.01 18.7298 163.692 18.3416C163.383 17.9535 163.229 17.4329 163.229 16.7801C163.229 16.2331 163.352 15.5494 163.599 14.7289C163.847 13.9084 164.235 13.1012 164.764 12.3072C165.293 11.4955 165.968 10.8206 166.789 10.2824C167.618 9.74426 168.575 9.47518 169.66 9.47518C170.049 9.47518 170.388 9.5237 170.679 9.62075C170.971 9.71779 171.218 9.82366 171.421 9.93835C171.535 10.0089 171.641 10.0839 171.738 10.1633C171.844 10.2339 171.941 10.3133 172.029 10.4015L172.492 10.1766C172.625 10.1148 172.762 10.0619 172.903 10.0178C173.053 9.96482 173.181 9.93835 173.286 9.93835C173.622 9.93835 173.895 10.031 174.107 10.2163C174.319 10.4015 174.425 10.6044 174.425 10.825C174.425 10.8956 174.42 10.9441 174.411 10.9706C174.35 11.2176 174.235 11.5573 174.067 11.9895C173.908 12.4218 173.736 12.9027 173.551 13.432C173.366 13.9437 173.207 14.4377 173.075 14.9142C172.951 15.3906 172.889 15.7832 172.889 16.0919C172.889 16.3566 172.934 16.5772 173.022 16.7536C173.11 16.9212 173.26 17.0051 173.472 17.0051C173.728 17.0051 174.072 16.8595 174.504 16.5683C174.936 16.2684 175.382 15.9155 175.841 15.5097C176.088 15.2891 176.343 15.0553 176.608 14.8083C176.873 14.5524 177.142 14.2834 177.415 14.001C177.556 13.8864 177.693 13.829 177.826 13.829C178.002 13.829 178.148 13.9172 178.262 14.0937C178.386 14.2613 178.448 14.451 178.448 14.6627C178.448 14.9097 178.364 15.1171 178.196 15.2847C177.843 15.6111 177.481 15.9596 177.111 16.3301C176.74 16.7007 176.229 17.155 175.576 17.6932C174.994 18.1696 174.394 18.5798 173.776 18.9239C173.159 19.2592 172.603 19.4268 172.109 19.4268C171.491 19.4268 171.041 19.1886 170.759 18.7122C170.477 18.2269 170.335 17.7108 170.335 17.1639C170.335 16.7668 170.393 16.414 170.507 16.1052C170.146 16.5904 169.718 17.0933 169.224 17.6138C168.73 18.1255 168.196 18.5578 167.622 18.9107C167.049 19.2547 166.462 19.4268 165.862 19.4268ZM166.921 17.0977C167.203 17.0977 167.556 16.9168 167.98 16.5551C168.412 16.1934 168.827 15.7699 169.224 15.2847C169.665 14.7554 170.013 14.2745 170.269 13.8422C170.525 13.4099 170.653 13.1188 170.653 12.9688C170.653 12.6336 170.459 12.3689 170.071 12.1748C169.683 11.9719 169.334 11.8704 169.025 11.8704C168.478 11.8704 167.958 12.0469 167.464 12.3998C166.978 12.7527 166.581 13.207 166.273 13.7628C165.964 14.3098 165.809 14.8789 165.809 15.47C165.809 15.814 165.871 16.1713 165.995 16.5419C166.127 16.9124 166.436 17.0977 166.921 17.0977ZM176.634 19.4268C176.193 19.4268 175.972 19.2018 175.972 18.7519C175.972 18.6548 175.986 18.5357 176.012 18.3946C176.047 18.2446 176.113 18.0814 176.21 17.9049C176.36 17.6226 176.524 17.2918 176.7 16.9124C176.877 16.5242 177.062 16.1228 177.256 15.7082C177.468 15.2582 177.71 14.7421 177.984 14.1598C178.266 13.5687 178.597 12.8894 178.976 12.1219C178.853 12.016 178.747 11.8881 178.659 11.7381C178.579 11.5793 178.54 11.3852 178.54 11.1558C178.54 10.7412 178.698 10.4368 179.016 10.2427C179.342 10.0398 179.731 9.93835 180.181 9.93835C180.622 9.93835 181.05 10.0178 181.464 10.1766C181.888 10.3265 182.099 10.5559 182.099 10.8647C182.099 10.9 182.069 10.9838 182.007 11.1161C181.954 11.2396 181.927 11.3235 181.927 11.3676C181.927 11.3852 181.932 11.394 181.941 11.394H181.954L181.98 11.3808C182.633 10.975 183.335 10.6309 184.084 10.3486C184.834 10.0663 185.452 9.92512 185.937 9.92512C186.334 9.92512 186.639 10.0222 186.85 10.2163C187.071 10.4015 187.181 10.7191 187.181 11.1691C187.181 11.2661 187.177 11.372 187.168 11.4867C187.159 11.5925 187.141 11.7072 187.115 11.8307C187.053 12.1572 186.806 12.5806 186.374 13.1012C185.942 13.6217 185.483 14.1246 184.998 14.6098C184.777 14.8303 184.512 15.095 184.204 15.4038C183.895 15.7038 183.626 15.9817 183.396 16.2375C183.167 16.4845 183.052 16.6522 183.052 16.7404C183.052 16.8639 183.096 16.9256 183.185 16.9256C183.82 16.6522 184.539 16.3169 185.342 15.9199C186.144 15.5141 186.921 15.1082 187.671 14.7024C188.421 14.2966 189.034 13.9569 189.51 13.6834C189.695 13.5776 189.854 13.5246 189.987 13.5246C190.357 13.5246 190.542 13.7187 190.542 14.1069C190.542 14.3098 190.454 14.5436 190.278 14.8083C190.11 15.0641 189.823 15.3332 189.418 15.6155C189.038 15.8537 188.518 16.1846 187.856 16.608C187.203 17.0227 186.555 17.4153 185.911 17.7858C185.275 18.1475 184.667 18.4563 184.084 18.7122C183.511 18.968 183.03 19.0959 182.642 19.0959C182.033 19.0959 181.574 18.9504 181.266 18.6592C180.966 18.3681 180.816 17.9932 180.816 17.5344C180.816 17.455 180.82 17.4021 180.829 17.3756C180.926 16.811 181.129 16.264 181.438 15.7346C181.747 15.2053 182.069 14.7201 182.404 14.2789C182.739 13.8467 183.035 13.4452 183.29 13.0747C183.555 12.7042 183.687 12.3866 183.687 12.1219C183.687 11.9895 183.639 11.9234 183.542 11.9234C183.401 11.9234 183.145 11.994 182.774 12.1351C182.404 12.2675 182.038 12.4439 181.676 12.6645C181.314 12.885 181.067 13.1188 180.935 13.3658C180.758 13.6746 180.533 14.1069 180.26 14.6627C179.995 15.2097 179.731 15.7699 179.466 16.3434C179.21 16.9168 178.994 17.3932 178.817 17.7726C178.623 18.2578 178.301 18.6548 177.851 18.9636C177.41 19.2724 177.005 19.4268 176.634 19.4268ZM190.635 19.4268C189.99 19.4268 189.457 19.2459 189.033 18.8842C188.61 18.5137 188.398 17.9005 188.398 17.0448C188.398 15.9596 188.641 14.945 189.126 14.001C189.611 13.0571 190.224 12.2498 190.965 11.5793C191.698 10.9088 192.47 10.3927 193.281 10.031C194.102 9.66045 194.834 9.47518 195.478 9.47518C195.999 9.47518 196.431 9.55899 196.775 9.72661C196.969 9.83248 197.132 9.95158 197.265 10.0839L197.37 9.85895L197.609 9.30314L197.754 8.9723C197.772 8.90172 197.886 8.61941 198.098 8.12536C198.31 7.63131 198.592 6.96522 198.945 6.1271C199.272 5.35073 199.541 4.69347 199.752 4.1553C199.964 3.60832 200.074 3.31718 200.083 3.28189C200.207 2.84077 200.414 2.44818 200.705 2.10411C200.996 1.76003 201.389 1.588 201.883 1.588C202.218 1.588 202.496 1.66299 202.717 1.81297C202.937 1.95413 203.048 2.23203 203.048 2.64668C203.048 2.96429 202.977 3.30395 202.836 3.66566C202.695 4.02738 202.571 4.34939 202.465 4.63171C202.042 5.47865 201.583 6.41823 201.089 7.45045C200.604 8.48266 200.119 9.54135 199.633 10.6265C199.148 11.7116 198.689 12.7571 198.257 13.7628C197.825 14.7598 197.45 15.642 197.132 16.4095C197.123 16.4184 197.119 16.4404 197.119 16.4757C197.119 16.511 197.115 16.5331 197.106 16.5419C197.106 16.7007 197.145 16.8683 197.225 17.0448C197.304 17.2124 197.432 17.2962 197.609 17.2962C197.662 17.2962 197.714 17.2874 197.767 17.2697C198.42 17.0756 199.091 16.736 199.779 16.2507C200.467 15.7655 201.102 15.245 201.685 14.6892C202.276 14.1246 202.748 13.6305 203.1 13.207C203.224 13.0571 203.361 12.9821 203.511 12.9821C203.643 12.9821 203.758 13.0438 203.855 13.1673C203.961 13.2908 204.014 13.4585 204.014 13.6702C204.014 13.8378 203.965 14.0363 203.868 14.2657C203.78 14.4951 203.63 14.7421 203.418 15.0068C202.73 15.7655 202.015 16.4845 201.274 17.1639C200.533 17.8344 199.792 18.3813 199.051 18.8048C198.31 19.2195 197.587 19.4268 196.881 19.4268C196.237 19.4268 195.729 19.2459 195.359 18.8842C194.988 18.5137 194.803 17.9623 194.803 17.23V17.0845C194.803 17.0227 194.807 16.9786 194.816 16.9521C194.41 17.6844 193.802 18.2799 192.99 18.7386C192.187 19.1974 191.402 19.4268 190.635 19.4268ZM191.614 17.0845C192.152 17.0845 192.664 16.9212 193.149 16.5948C193.634 16.2684 194.08 15.8493 194.485 15.3376C194.891 14.8259 195.244 14.2922 195.544 13.7364C195.853 13.1806 196.104 12.6733 196.298 12.2145L196.484 11.8043L196.735 11.2352C196.215 11.2441 195.659 11.3587 195.068 11.5793C194.053 11.9234 193.167 12.5321 192.408 13.4055C191.658 14.2701 191.243 15.32 191.164 16.5551C191.164 16.908 191.314 17.0845 191.614 17.0845Z" fill="white"/>
<path d="M5.57977 17.3107C7.19648 17.3107 11.1667 13.3259 11.1667 11.7033C11.1667 10.0807 7.19648 6.09595 5.57977 6.09595C3.96307 6.09595 -7.47244e-10 10.0879 -1.04964e-09 11.7033C-1.35203e-09 13.3187 3.97022 17.3107 5.57977 17.3107ZM2.38213 10.8346C2.56813 10.1525 5.76577 8.31448 6.45251 8.50115C7.12494 8.68783 8.95625 11.8972 8.77741 12.5864C8.58426 13.2613 5.39378 15.1065 4.70704 14.9198C4.02745 14.726 2.19614 11.5238 2.38213 10.8346Z" fill="white"/>
<path d="M222.4 17.3107C224.016 17.3107 227.987 13.3259 227.987 11.7033C227.987 10.0807 224.016 6.09595 222.4 6.09595C220.783 6.09595 216.82 10.0879 216.82 11.7033C216.82 13.3187 220.79 17.3107 222.4 17.3107ZM219.202 10.8346C219.388 10.1525 222.586 8.31448 223.272 8.50115C223.945 8.68783 225.776 11.8972 225.597 12.5864C225.404 13.2613 222.214 15.1065 221.527 14.9198C220.847 14.726 219.016 11.5238 219.202 10.8346Z" fill="white"/>
</svg>
