<svg width="16" height="16" viewBox="0 0 16 16" fill="none" xmlns="http://www.w3.org/2000/svg">
<path d="M10.0199 6.17425C10.1169 5.88318 10.161 5.74206 10.2404 5.7156C10.2757 5.70678 10.3109 5.70678 10.3462 5.7156C10.4256 5.74206 10.4697 5.88318 10.5667 6.17425C10.9636 7.38263 11.1577 7.98241 11.537 8.45871C11.7134 8.67921 11.9074 8.87326 12.1279 9.04967C12.6042 9.42012 13.204 9.62299 14.4124 10.0199C14.7034 10.1169 14.8446 10.161 14.871 10.2404C14.8798 10.2757 14.8798 10.311 14.871 10.3462C14.8446 10.4256 14.7034 10.4697 14.4124 10.5668C13.204 10.9637 12.6042 11.1577 12.1279 11.537C11.9074 11.7134 11.7134 11.9074 11.537 12.1279C11.1665 12.6042 10.9636 13.204 10.5667 14.4124C10.4697 14.7035 10.4256 14.8446 10.3462 14.8711C10.3109 14.8799 10.2757 14.8799 10.2404 14.8711C10.161 14.8446 10.1169 14.7035 10.0199 14.4124C9.62296 13.204 9.42891 12.6042 9.04964 12.1279C8.87323 11.9074 8.67919 11.7134 8.45868 11.537C7.98238 11.1665 7.3826 10.9637 6.17422 10.5668C5.88316 10.4697 5.74203 10.4256 5.71557 10.3462C5.70675 10.311 5.70675 10.2757 5.71557 10.2404C5.74203 10.161 5.88316 10.1169 6.17422 10.0199C7.3826 9.62299 7.98238 9.42894 8.45868 9.04967C8.67919 8.87326 8.87323 8.67921 9.04964 8.45871C9.42891 7.98241 9.62296 7.38263 10.0199 6.17425ZM3.99561 3.73104C4.05736 3.53699 4.09264 3.43997 4.14556 3.42233C4.17202 3.41351 4.18966 3.41351 4.21612 3.42233C4.26904 3.43997 4.2955 3.53699 4.36607 3.73104C4.63067 4.53368 4.76298 4.93941 5.00995 5.25694C5.12461 5.40689 5.25692 5.53919 5.40686 5.65386C5.72439 5.90083 6.13012 6.03313 6.93277 6.29774C7.12682 6.35948 7.22384 6.39476 7.24148 6.44768C7.2503 6.47414 7.2503 6.49178 7.24148 6.51825C7.22384 6.57117 7.12682 6.59763 6.93277 6.66819C6.13012 6.9328 5.72439 7.0651 5.40686 7.31207C5.25692 7.42673 5.12461 7.55904 5.00995 7.70898C4.76298 8.02651 4.63067 8.43225 4.36607 9.23489C4.30432 9.42894 4.26904 9.52596 4.21612 9.5436C4.18966 9.55242 4.17202 9.55242 4.14556 9.5436C4.09264 9.52596 4.06618 9.42894 3.99561 9.23489C3.73101 8.43225 3.5987 8.02651 3.35173 7.70898C3.23707 7.55904 3.10477 7.42673 2.95482 7.31207C2.63729 7.0651 2.23156 6.9328 1.42891 6.66819C1.23487 6.60645 1.13784 6.57117 1.1202 6.51825C1.11138 6.49178 1.11138 6.47414 1.1202 6.44768C1.13784 6.39476 1.23487 6.3683 1.42891 6.29774C2.23156 6.03313 2.63729 5.90083 2.95482 5.65386C3.10477 5.53919 3.23707 5.40689 3.35173 5.25694C3.5987 4.93059 3.73101 4.53368 3.99561 3.73104ZM8.27345 1.3231C8.30873 1.19961 8.33519 1.14669 8.36166 1.12905C8.3793 1.12023 8.38812 1.12023 8.40576 1.12905C8.44104 1.13787 8.45868 1.19961 8.49396 1.3231C8.66154 1.82585 8.74093 2.07282 8.89969 2.27569C8.97026 2.36389 9.05846 2.45209 9.14666 2.52266C9.34953 2.68142 9.59649 2.7608 10.0993 2.92839C10.2227 2.96367 10.2757 2.99013 10.2933 3.01659C10.3021 3.03423 10.3021 3.04305 10.2933 3.06069C10.2845 3.09597 10.2227 3.11362 10.0993 3.1489C9.59649 3.31648 9.34953 3.39586 9.14666 3.55463C9.05846 3.62519 8.97026 3.71339 8.89969 3.8016C8.74093 4.00446 8.66154 4.25143 8.49396 4.75419C8.45868 4.87767 8.43222 4.93059 8.40576 4.94823C8.38812 4.95705 8.3793 4.95705 8.36166 4.94823C8.32637 4.93941 8.30873 4.87767 8.27345 4.75419C8.10587 4.25143 8.02648 4.00446 7.86772 3.8016C7.79716 3.71339 7.70895 3.62519 7.62075 3.55463C7.41789 3.39586 7.17092 3.31648 6.66816 3.1489C6.54468 3.11362 6.49176 3.08715 6.47411 3.06069C6.46529 3.04305 6.46529 3.03423 6.47411 3.01659C6.48293 2.98131 6.54468 2.96367 6.66816 2.92839C7.17092 2.7608 7.41789 2.68142 7.62075 2.52266C7.70895 2.45209 7.79716 2.36389 7.86772 2.27569C8.01766 2.07282 8.10587 1.82585 8.27345 1.3231Z" fill="#836EF9"/>
</svg>
