<svg width="229" height="26" viewBox="0 0 229 26" fill="none" xmlns="http://www.w3.org/2000/svg">
<path d="M67.1599 9.47396C68.0552 10.0839 68.7242 10.7922 69.1669 11.599C69.6096 12.3958 69.8309 13.2911 69.8309 14.2847C69.8309 15.3571 69.5358 16.3507 68.9455 17.2656C68.3651 18.1707 67.519 18.8594 66.4073 19.3316C65.2956 19.794 63.8396 20.0252 62.0393 20.0252C59.6978 20.0252 57.9368 19.6612 56.7563 18.9332C56.0971 18.52 55.7676 18.0281 55.7676 17.4575C55.7676 17.0246 55.9102 16.6606 56.1955 16.3654C56.4907 16.0605 56.8448 15.908 57.258 15.908C57.5433 15.908 57.8385 16.0064 58.1434 16.2031C58.5763 16.4983 58.9846 16.695 59.3683 16.7934C59.9586 16.9311 60.7702 17 61.8032 17C63.5642 17 64.8382 16.7737 65.6252 16.3212C66.4123 15.8588 66.8058 15.2095 66.8058 14.3733C66.8058 13.7535 66.5746 13.1583 66.1122 12.5877C65.6597 12.0072 65.0497 11.5596 64.2823 11.2448C63.8396 11.0677 63.0919 10.9447 62.0393 10.8759C61.5375 10.8464 61.1489 10.6939 60.8735 10.4184C60.6079 10.1331 60.475 9.78385 60.475 9.37066C60.475 8.93779 60.6226 8.57378 60.9178 8.27864C61.2129 7.98351 61.5867 7.83594 62.0393 7.83594C63.0428 7.83594 63.5789 7.83102 63.6478 7.82118C64.0413 7.78183 64.4348 7.65393 64.8283 7.4375C65.2219 7.22106 65.5367 6.92593 65.7728 6.55208C66.0187 6.1684 66.1417 5.77488 66.1417 5.37153C66.1417 4.73206 65.8564 4.18113 65.2858 3.71875C64.725 3.24653 63.879 3.01042 62.7476 3.01042C61.2916 3.01042 60.1799 3.43345 59.4125 4.27951C59.1863 4.52546 59.0043 4.68287 58.8665 4.75174C58.6599 4.85995 58.4287 4.91406 58.173 4.91406C57.7598 4.91406 57.4056 4.76649 57.1105 4.47135C56.8153 4.17621 56.6678 3.81221 56.6678 3.37934C56.6678 2.70052 57.1203 2.04138 58.0254 1.40191C59.3437 0.467303 60.9915 0 62.969 0C64.8382 0 66.3385 0.53125 67.4698 1.59375C68.6012 2.65625 69.1669 3.93518 69.1669 5.43055C69.1669 6.20775 68.9996 6.93576 68.6651 7.61458C68.3307 8.28356 67.8289 8.90336 67.1599 9.47396Z" fill="#EEEEEE"/>
<path d="M41.8778 0.446289V7.23448C42.6157 6.75242 43.3634 6.39334 44.1209 6.15723C44.8882 5.91128 45.6605 5.7883 46.4377 5.7883C48.5332 5.7883 50.309 6.51139 51.765 7.95757C53.221 9.40375 53.949 11.15 53.949 13.1963C53.949 15.154 53.2554 16.7921 51.8683 18.1103C50.4811 19.4188 48.6513 20.073 46.3787 20.073C45.572 20.073 44.7948 19.9697 44.0471 19.7631C43.2994 19.5565 42.5763 19.2516 41.8778 18.8482V19.586H38.3362C37.6081 19.586 37.0867 19.4483 36.7719 19.1728C36.4669 18.8875 36.3145 18.5186 36.3145 18.0661C36.3145 17.6234 36.4719 17.2643 36.7867 16.9888C37.1015 16.7035 37.618 16.5609 38.3362 16.5609H38.8526V3.47146H38.3362C37.6081 3.47146 37.0867 3.33373 36.7719 3.05827C36.4669 2.77297 36.3145 2.40404 36.3145 1.9515C36.3145 1.50879 36.4669 1.1497 36.7719 0.87424C37.0867 0.58894 37.6081 0.446289 38.3362 0.446289H41.8778ZM50.9238 13.2848C50.9238 12.0354 50.486 10.9778 49.6105 10.1121C48.7349 9.24635 47.6625 8.81348 46.3934 8.81348C45.1342 8.81348 44.0668 9.24635 43.1912 10.1121C42.3156 10.9778 41.8778 12.0207 41.8778 13.2406C41.8778 14.3522 42.2713 15.2672 43.0584 15.9853C43.8454 16.6937 44.9571 17.0478 46.3934 17.0478C47.8298 17.0478 48.9415 16.6937 49.7285 15.9853C50.5254 15.2672 50.9238 14.367 50.9238 13.2848Z" fill="#EEEEEE"/>
<path d="M35.1339 14.4199H22.7233C23.0381 15.207 23.594 15.8415 24.3908 16.3236C25.1976 16.8056 26.2847 17.0467 27.6521 17.0467C28.7737 17.0467 30.2641 16.8056 32.1235 16.3236C32.8908 16.1268 33.4221 16.0284 33.7172 16.0284C34.1206 16.0284 34.46 16.1711 34.7355 16.4564C35.0109 16.7417 35.1487 17.1008 35.1487 17.5336C35.1487 17.9272 35.0011 18.2616 34.7059 18.5371C34.3124 18.9011 33.3532 19.2504 31.8283 19.5849C30.3035 19.9095 28.8376 20.0718 27.4308 20.0718C25.0106 20.0718 23.0726 19.3881 21.6165 18.0206C20.1704 16.6531 19.4473 14.9708 19.4473 12.9737C19.4473 10.8487 20.2294 9.12218 21.7936 7.79405C23.3677 6.45609 25.1779 5.78711 27.2242 5.78711C28.4539 5.78711 29.5804 6.00354 30.6035 6.43641C31.6365 6.86929 32.4039 7.33659 32.9056 7.83832C33.6139 8.56633 34.1993 9.46651 34.6617 10.5388C34.9765 11.2865 35.1339 12.1523 35.1339 13.1361V14.4199ZM31.7841 11.3947C31.3217 10.529 30.7167 9.88462 29.969 9.46159C29.2213 9.02872 28.3309 8.81228 27.298 8.81228C26.2748 8.81228 25.3894 9.02872 24.6417 9.46159C23.894 9.88462 23.2841 10.529 22.8118 11.3947H31.7841Z" fill="#EEEEEE"/>
<path d="M9.40018 10.9952L6.59636 19.5838H3.20226L1.40191 4.72352C0.939526 4.6645 0.590278 4.50709 0.354167 4.2513C0.118056 3.98568 0 3.65119 0 3.24783C0 2.77561 0.152488 2.39685 0.457465 2.11155C0.77228 1.82624 1.29369 1.68359 2.0217 1.68359L6.05035 1.69835C6.77836 1.69835 7.29485 1.83608 7.59983 2.11155C7.91464 2.38701 8.07205 2.75101 8.07205 3.20356C8.07205 3.65611 7.91464 4.02503 7.59983 4.31033C7.29485 4.58579 6.77836 4.72352 6.05035 4.72352H4.47136L5.47483 13.1793L7.8507 6.14019H10.9939L13.355 13.1793L14.3585 4.72352H12.7795C12.0515 4.72352 11.5301 4.58579 11.2153 4.31033C10.9103 4.02503 10.7578 3.65611 10.7578 3.20356C10.7578 2.75101 10.9103 2.38701 11.2153 2.11155C11.5301 1.82624 12.0515 1.68359 12.7795 1.68359L16.7934 1.69835C17.5214 1.69835 18.0379 1.83608 18.3429 2.11155C18.6577 2.38701 18.8151 2.75101 18.8151 3.20356C18.8151 3.58724 18.6921 3.91681 18.4462 4.19227C18.2002 4.46774 17.8461 4.64482 17.3837 4.72352L15.6424 19.5838H12.3073L9.40018 10.9952Z" fill="#EEEEEE"/>
<path d="M80.1125 18.0675C80.1125 18.6381 79.9108 19.1152 79.5075 19.4989C79.1041 19.8826 78.5483 20.0744 77.84 20.0744C77.1316 20.0744 76.5758 19.8826 76.1724 19.4989C75.7691 19.1152 75.5674 18.6381 75.5674 18.0675C75.5674 17.4969 75.7691 17.0197 76.1724 16.6361C76.5758 16.2524 77.1316 16.0605 77.84 16.0605C78.5483 16.0605 79.1041 16.2524 79.5075 16.6361C79.9108 17.0197 80.1125 17.4969 80.1125 18.0675Z" fill="white"/>
<path d="M191.852 9.20952V15.2746C191.852 15.9239 191.985 16.3519 192.25 16.5585C192.663 16.8831 193.401 17.0455 194.464 17.0455C196.008 17.0455 197.435 16.7159 198.743 16.0567C199.245 15.801 199.639 15.6731 199.924 15.6731C200.317 15.6731 200.657 15.8206 200.942 16.1158C201.237 16.4109 201.385 16.77 201.385 17.193C201.385 17.5865 201.227 17.926 200.913 18.2113C200.43 18.6736 199.476 19.1016 198.05 19.4951C196.633 19.8788 195.438 20.0706 194.464 20.0706C192.585 20.0706 191.173 19.6673 190.229 18.8606C189.294 18.044 188.827 17.0455 188.827 15.8649V9.20952H187.735C187.007 9.20952 186.485 9.07179 186.17 8.79633C185.865 8.51103 185.713 8.14211 185.713 7.68956C185.713 7.24685 185.865 6.88777 186.17 6.6123C186.485 6.327 187.007 6.18435 187.735 6.18435H188.827V3.45432C188.827 2.72631 188.964 2.20982 189.24 1.90484C189.525 1.59002 189.894 1.43262 190.347 1.43262C190.789 1.43262 191.148 1.59002 191.424 1.90484C191.709 2.20982 191.852 2.72631 191.852 3.45432V6.18435H197.445C198.173 6.18435 198.689 6.327 198.994 6.6123C199.309 6.88777 199.466 7.25177 199.466 7.70432C199.466 8.14702 199.309 8.51103 198.994 8.79633C198.689 9.07179 198.173 9.20952 197.445 9.20952H191.852Z" fill="#01DB83"/>
<path d="M174.326 0.446289V6.89507C174.956 6.52123 175.59 6.24577 176.23 6.06868C176.879 5.88176 177.533 5.7883 178.192 5.7883C179.235 5.7883 180.165 5.96539 180.981 6.31955C181.798 6.67372 182.472 7.23448 183.003 8.00184C183.544 8.75937 183.815 9.71857 183.815 10.8794V16.5609C184.582 16.5609 185.084 16.6347 185.32 16.7822C185.792 17.0872 186.028 17.5201 186.028 18.0808C186.028 18.5235 185.876 18.8875 185.571 19.1728C185.266 19.4483 184.749 19.586 184.021 19.586H180.568C179.85 19.586 179.334 19.4483 179.019 19.1728C178.714 18.8875 178.561 18.5186 178.561 18.0661C178.561 17.5152 178.797 17.0872 179.27 16.7822C179.516 16.6248 180.017 16.551 180.775 16.5609V11.086C180.775 10.3088 180.598 9.76284 180.244 9.44802C179.781 9.02499 179.097 8.81347 178.192 8.81347C177.523 8.81347 176.928 8.94629 176.407 9.21191C175.895 9.4677 175.202 10.0285 174.326 10.8942V16.5609C175.103 16.5609 175.605 16.6347 175.831 16.7822C176.313 17.0872 176.554 17.5201 176.554 18.0808C176.554 18.5235 176.397 18.8875 176.082 19.1728C175.777 19.4483 175.261 19.586 174.533 19.586H171.094C170.366 19.586 169.845 19.4483 169.53 19.1728C169.225 18.8875 169.073 18.5186 169.073 18.0661C169.073 17.5152 169.314 17.0872 169.796 16.7822C170.032 16.6248 170.534 16.551 171.301 16.5609V3.47146H170.784C170.056 3.47146 169.535 3.33373 169.22 3.05827C168.915 2.77297 168.763 2.40404 168.763 1.9515C168.763 1.50879 168.915 1.1497 169.22 0.87424C169.535 0.588939 170.056 0.446289 170.784 0.446289H174.326Z" fill="#01DB83"/>
<path d="M162.624 7.08312V6.18294H166.166C166.894 6.18294 167.41 6.32559 167.715 6.61089C168.03 6.88636 168.187 7.25036 168.187 7.70291C168.187 8.14562 168.03 8.50962 167.715 8.79492C167.41 9.07038 166.894 9.20812 166.166 9.20812H165.649V20.2168C165.649 21.2793 165.423 22.2041 164.97 22.9911C164.528 23.788 163.844 24.4717 162.919 25.0423C161.994 25.6129 160.952 25.8982 159.791 25.8982H156.367C155.639 25.8982 155.118 25.7556 154.803 25.4703C154.498 25.1948 154.345 24.8357 154.345 24.393C154.345 23.9405 154.498 23.5715 154.803 23.2862C155.118 23.0108 155.639 22.873 156.367 22.873H159.702C160.627 22.873 161.345 22.6222 161.857 22.1204C162.368 21.6187 162.624 20.9842 162.624 20.2168V18.7411C161.955 19.174 161.271 19.4986 160.573 19.7151C159.884 19.9315 159.176 20.0397 158.448 20.0397C156.392 20.0397 154.67 19.356 153.283 17.9885C151.896 16.6112 151.202 14.9141 151.202 12.8974C151.202 10.8707 151.896 9.17368 153.283 7.80621C154.67 6.42889 156.392 5.74023 158.448 5.74023C159.215 5.74023 159.943 5.85337 160.632 6.07964C161.33 6.29608 161.994 6.63057 162.624 7.08312ZM162.609 12.8826C162.609 11.7709 162.196 10.8068 161.37 9.99023C160.553 9.17368 159.569 8.76541 158.418 8.76541C157.267 8.76541 156.279 9.17368 155.452 9.99023C154.636 10.8068 154.227 11.7709 154.227 12.8826C154.227 14.0041 154.636 14.9732 155.452 15.7897C156.279 16.5964 157.267 16.9998 158.418 16.9998C159.569 16.9998 160.553 16.5964 161.37 15.7897C162.196 14.9732 162.609 14.0041 162.609 12.8826Z" fill="#01DB83"/>
<path d="M144.23 0.446289V3.64855H140.629V0.446289H144.23ZM144.643 6.18674V16.5609H148.273C149.001 16.5609 149.518 16.7035 149.823 16.9888C150.137 17.2643 150.295 17.6283 150.295 18.0808C150.295 18.5235 150.137 18.8875 149.823 19.1728C149.518 19.4483 149.001 19.586 148.273 19.586H137.988C137.26 19.586 136.738 19.4483 136.423 19.1728C136.118 18.8875 135.966 18.5186 135.966 18.0661C135.966 17.6234 136.118 17.2643 136.423 16.9888C136.738 16.7035 137.26 16.5609 137.988 16.5609H141.618V9.21191H139.183C138.465 9.21191 137.948 9.07418 137.633 8.79872C137.319 8.51342 137.161 8.14449 137.161 7.69195C137.161 7.24924 137.314 6.89015 137.619 6.61469C137.933 6.32939 138.455 6.18674 139.183 6.18674H144.643Z" fill="#01DB83"/>
<path d="M131.258 9.72721C130.766 9.42224 130.25 9.19596 129.708 9.04839C129.167 8.89099 128.602 8.81228 128.011 8.81228C126.841 8.81228 125.911 9.00412 125.222 9.3878C124.917 9.55505 124.765 9.73705 124.765 9.93381C124.765 10.1601 124.971 10.3814 125.385 10.5979C125.699 10.7553 126.403 10.9078 127.495 11.0553C129.502 11.3308 130.899 11.6063 131.686 11.8817C132.719 12.2457 133.516 12.7868 134.076 13.505C134.637 14.2232 134.918 14.9807 134.918 15.7776C134.918 16.8597 134.441 17.7648 133.486 18.4928C132.119 19.5455 130.343 20.0718 128.159 20.0718C127.283 20.0718 126.472 19.9931 125.724 19.8357C124.986 19.6881 124.307 19.4668 123.688 19.1717C123.54 19.2995 123.383 19.3979 123.215 19.4668C123.048 19.5357 122.876 19.5701 122.699 19.5701C122.227 19.5701 121.848 19.4176 121.563 19.1126C121.287 18.7978 121.149 18.2764 121.149 17.5484V16.5302C121.149 15.8022 121.287 15.2857 121.563 14.9807C121.848 14.6659 122.217 14.5085 122.669 14.5085C123.033 14.5085 123.338 14.6118 123.584 14.8184C123.83 15.0151 124.022 15.3594 124.16 15.8513C124.622 16.2449 125.178 16.5449 125.827 16.7515C126.477 16.9483 127.224 17.0467 128.07 17.0467C129.458 17.0467 130.535 16.8302 131.302 16.3974C131.666 16.1809 131.848 15.9546 131.848 15.7185C131.848 15.325 131.587 15.0004 131.066 14.7446C130.545 14.4888 129.467 14.2724 127.834 14.0953C125.404 13.8395 123.781 13.3476 122.965 12.6196C122.148 11.9014 121.74 11.016 121.74 9.96332C121.74 8.88115 122.197 7.98097 123.112 7.2628C124.352 6.27901 125.975 5.78711 127.982 5.78711C128.68 5.78711 129.349 5.85598 129.989 5.99371C130.638 6.1216 131.258 6.32328 131.848 6.59874C132.035 6.46101 132.207 6.35771 132.365 6.28885C132.532 6.21998 132.684 6.18555 132.822 6.18555C133.235 6.18555 133.58 6.34295 133.855 6.65777C134.131 6.96275 134.268 7.47924 134.268 8.20725V8.9451C134.268 9.60424 134.19 10.0519 134.032 10.288C133.717 10.7405 133.289 10.9668 132.748 10.9668C132.384 10.9668 132.065 10.8537 131.789 10.6274C131.514 10.4011 131.337 10.1011 131.258 9.72721Z" fill="#01DB83"/>
<path d="M107.776 6.18555V7.20378C108.327 6.73155 108.932 6.37739 109.591 6.14128C110.26 5.90516 110.983 5.78711 111.76 5.78711C113.551 5.78711 114.967 6.34295 116.01 7.45464C116.837 8.34006 117.25 9.50094 117.25 10.9373V16.5597C117.889 16.5597 118.362 16.7023 118.667 16.9876C118.972 17.2631 119.124 17.6271 119.124 18.0796C119.124 18.5224 118.967 18.8864 118.652 19.1717C118.347 19.4471 117.83 19.5849 117.102 19.5849H114.372C113.644 19.5849 113.123 19.4471 112.808 19.1717C112.503 18.8864 112.351 18.5174 112.351 18.0649C112.351 17.6222 112.503 17.2631 112.808 16.9876C113.113 16.7023 113.585 16.5597 114.225 16.5597V10.8487C114.225 10.1896 114.048 9.70754 113.693 9.40256C113.231 9.00904 112.538 8.81228 111.613 8.81228C110.914 8.81228 110.299 8.95002 109.768 9.22548C109.247 9.4911 108.583 10.0617 107.776 10.9373V16.5597C108.553 16.5597 109.055 16.6335 109.281 16.781C109.763 17.0762 110.004 17.509 110.004 18.0796C110.004 18.5224 109.847 18.8864 109.532 19.1717C109.227 19.4471 108.711 19.5849 107.983 19.5849H104.544C103.816 19.5849 103.295 19.4471 102.98 19.1717C102.675 18.8864 102.522 18.5174 102.522 18.0649C102.522 17.514 102.759 17.086 103.231 16.781C103.467 16.6335 103.974 16.5597 104.751 16.5597V9.21072C104.111 9.21072 103.639 9.06807 103.334 8.78277C103.029 8.49747 102.877 8.13346 102.877 7.69076C102.877 7.24805 103.029 6.88896 103.334 6.6135C103.649 6.3282 104.17 6.18555 104.898 6.18555H107.776Z" fill="#01DB83"/>
<path d="M94.7766 0.446289V3.64855H91.1759V0.446289H94.7766ZM95.1898 6.18674V16.5609H98.82C99.548 16.5609 100.064 16.7035 100.369 16.9888C100.684 17.2643 100.842 17.6283 100.842 18.0808C100.842 18.5235 100.684 18.8875 100.369 19.1728C100.064 19.4483 99.548 19.586 98.82 19.586H88.5344C87.8064 19.586 87.285 19.4483 86.9702 19.1728C86.6652 18.8875 86.5127 18.5186 86.5127 18.0661C86.5127 17.6234 86.6652 17.2643 86.9702 16.9888C87.285 16.7035 87.8064 16.5609 88.5344 16.5609H92.1646V9.21191H89.7297C89.0115 9.21191 88.495 9.07418 88.1802 8.79872C87.8654 8.51342 87.708 8.14449 87.708 7.69195C87.708 7.24924 87.8605 6.89015 88.1655 6.61469C88.4803 6.32939 89.0017 6.18674 89.7297 6.18674H95.1898Z" fill="#01DB83"/>
<path d="M228.947 12.2371C228.947 13.9587 228.662 15.705 228.091 17.4758C227.668 18.7744 227.014 20.2157 226.129 21.7996C225.489 22.9408 225.017 23.6442 224.712 23.9098C224.407 24.1755 224.068 24.3083 223.694 24.3083C223.261 24.3083 222.897 24.1607 222.602 23.8656C222.307 23.5704 222.159 23.2163 222.159 22.8031C222.159 22.5079 222.277 22.1685 222.513 21.7848C223.576 20.0435 224.348 18.4104 224.83 16.8855C225.322 15.3606 225.568 13.8112 225.568 12.2371C225.568 10.6729 225.322 9.12829 224.83 7.60341C224.348 6.07852 223.576 4.44542 222.513 2.7041C222.277 2.31058 222.159 1.97117 222.159 1.68587C222.159 1.27268 222.307 0.918511 222.602 0.623373C222.897 0.328234 223.261 0.180664 223.694 0.180664C224.058 0.180664 224.378 0.29872 224.653 0.534831C225.047 0.869322 225.568 1.6416 226.217 2.85167C227.152 4.59299 227.791 6.02442 228.136 7.14594C228.677 8.88726 228.947 10.5843 228.947 12.2371Z" fill="white"/>
<path d="M208.423 12.2371C208.423 10.5154 208.708 8.77413 209.279 7.01313C209.702 5.71452 210.356 4.26834 211.241 2.67459C211.881 1.53338 212.353 0.834889 212.658 0.579102C212.963 0.313477 213.302 0.180664 213.676 0.180664C214.109 0.180664 214.473 0.328234 214.768 0.623373C215.063 0.918511 215.211 1.27268 215.211 1.68587C215.211 1.97117 215.093 2.31058 214.857 2.7041C213.794 4.44542 213.017 6.07852 212.525 7.60341C212.043 9.12829 211.802 10.6729 211.802 12.2371C211.802 13.8112 212.043 15.3606 212.525 16.8855C213.017 18.4104 213.794 20.0435 214.857 21.7848C215.093 22.1685 215.211 22.5079 215.211 22.8031C215.211 23.2163 215.063 23.5704 214.768 23.8656C214.473 24.1607 214.109 24.3083 213.676 24.3083C213.312 24.3083 212.993 24.1902 212.717 23.9541C212.324 23.6098 211.802 22.8375 211.153 21.6373C210.218 19.8959 209.579 18.4596 209.234 17.3282C208.693 15.5968 208.423 13.8997 208.423 12.2371Z" fill="white"/>
</svg>
