<svg width="92" height="36" viewBox="0 0 92 36" fill="none" xmlns="http://www.w3.org/2000/svg">
<path d="M29.5769 32.9288C30.6496 31.8094 31.3504 30.2903 31.5505 28.6508C31.5876 28.3462 31.6907 27.5081 31.8358 26.334C34.0872 8.07267 34.0872 7.86881 34.0872 7.58697C34.0872 7.51758 34.086 7.44574 34.0835 7.3739C34.0255 5.5711 33.1968 3.8604 31.8105 2.679C30.4025 1.47918 28.5401 0.919176 26.7 1.14207L5.71754 3.6897C3.07397 4.01084 0.859576 5.92724 0.206866 8.4589C0.0697788 8.99004 0 9.53898 0 10.0904C0 10.1604 0.00123502 10.2322 0.00370507 10.3065C0.080894 12.6515 1.46165 14.7693 3.60688 15.8334C6.02259 16.9651 10.8929 18.273 13.7866 21.1504C16.6802 24.0277 17.9881 28.8645 19.1262 31.266L19.1342 31.2813C20.2087 33.4347 22.3514 34.8224 24.7276 34.9023C24.803 34.9047 24.8783 34.906 24.953 34.906C26.7123 34.906 28.3543 34.2035 29.5763 32.9275L29.5769 32.9288Z" fill="url(#paint0_linear_85_453)"/>
<path opacity="0.4" d="M20.7546 28.373C20.7546 30.6787 22.6418 32.5503 24.9525 32.5503C27.2632 32.5503 29.1571 30.672 29.1571 28.373C29.1571 26.0741 27.27 24.1958 24.9525 24.1958C22.6356 24.1958 20.7546 26.0741 20.7546 28.373Z" fill="white"/>
<path opacity="0.4" d="M23.2725 7.62731C23.2725 9.93301 25.1596 11.8046 27.4703 11.8046C29.781 11.8046 31.6749 9.92626 31.6749 7.62731C31.6749 5.32837 29.7878 3.45004 27.4703 3.45004C25.1534 3.45004 23.2725 5.32837 23.2725 7.62731Z" fill="white"/>
<path opacity="0.4" d="M2.41309 10.1307C2.41309 12.4364 4.3002 14.308 6.61772 14.308C8.93524 14.308 10.8156 12.4297 10.8156 10.1307C10.8156 7.83181 8.92845 5.95348 6.61772 5.95348C4.30699 5.95348 2.41309 7.83181 2.41309 10.1307Z" fill="white"/>
<path d="M45.3925 28V7.05247H48.385V16.0898L56.764 7.05247H60.5046L52.0957 16L60.6542 28H56.9734L49.7914 17.9452L48.385 19.4414V28H45.3925ZM61.6392 28V13.1572H64.6317V28H61.6392ZM63.1354 10.3442C62.5768 10.3442 62.108 10.1647 61.7289 9.80557C61.3499 9.42652 61.1604 8.96767 61.1604 8.42902C61.1604 7.89037 61.3499 7.44149 61.7289 7.08239C62.108 6.72329 62.5768 6.54374 63.1354 6.54374C63.694 6.54374 64.1628 6.72329 64.5419 7.08239C64.9209 7.44149 65.1105 7.89037 65.1105 8.42902C65.1105 8.96767 64.9209 9.42652 64.5419 9.80557C64.1628 10.1647 63.694 10.3442 63.1354 10.3442ZM73.0504 28C72.0928 28 71.2649 27.8503 70.5666 27.5511C69.8684 27.2518 69.3297 26.7531 68.9507 26.0548C68.5716 25.3566 68.3821 24.409 68.3821 23.212V15.5811H65.8385V13.1572H68.3821L68.7412 9.44647H71.3746V13.1572H75.624V15.5811H71.3746V23.2419C71.3746 24.1197 71.5542 24.7182 71.9133 25.0374C72.2724 25.3566 72.8908 25.5162 73.7686 25.5162H75.4444V28H73.0504ZM83.1443 28.3591C81.7079 28.3591 80.4311 28.0399 79.3139 27.4015C78.1967 26.7431 77.3189 25.8354 76.6805 24.6783C76.0421 23.5212 75.7229 22.1646 75.7229 20.6085C75.7229 19.0524 76.0321 17.6958 76.6505 16.5387C77.2889 15.3616 78.1667 14.4439 79.2839 13.7856C80.4011 13.1272 81.7079 12.7981 83.2041 12.7981C84.6605 12.7981 85.9173 13.1272 86.9747 13.7856C88.052 14.424 88.8799 15.2719 89.4584 16.3292C90.037 17.3866 90.3263 18.5636 90.3263 19.8604C90.3263 20.0599 90.3263 20.2793 90.3263 20.5187C90.3263 20.7581 90.3163 21.0075 90.2963 21.2668H77.9074V19.1721H87.3637C87.3038 17.9352 86.8749 16.9676 86.0769 16.2694C85.2989 15.5711 84.3313 15.222 83.1742 15.222C82.3562 15.222 81.5981 15.4015 80.8999 15.7606C80.2216 16.1197 79.673 16.6484 79.254 17.3467C78.855 18.0449 78.6555 18.9327 78.6555 20.01V20.8479C78.6555 21.9451 78.855 22.8728 79.254 23.6309C79.673 24.3691 80.2216 24.9277 80.8999 25.3067C81.5981 25.6858 82.3463 25.8753 83.1443 25.8753C84.0819 25.8753 84.8699 25.6658 85.5083 25.2469C86.1467 24.808 86.6156 24.2194 86.9148 23.4813H89.9073C89.648 24.4189 89.2091 25.2568 88.5906 25.995C87.9722 26.7132 87.2041 27.2917 86.2864 27.7306C85.3886 28.1496 84.3413 28.3591 83.1443 28.3591Z" fill="black"/>
<defs>
<linearGradient id="paint0_linear_85_453" x1="7.20562" y1="23.7741" x2="28.9406" y2="-1.74094" gradientUnits="userSpaceOnUse">
<stop stop-color="#9B8564"/>
<stop offset="1" stop-color="#DBD5C7"/>
</linearGradient>
</defs>
</svg>
