<svg width="244" height="38" viewBox="0 0 244 38" fill="none" xmlns="http://www.w3.org/2000/svg">
<path d="M227.059 15.8959L223.908 14.2915C223.662 14.7758 223.452 15.2835 223.285 15.8007L226.65 16.8887C226.76 16.5486 226.897 16.2145 227.059 15.8959Z" fill="white"/>
<path d="M229.735 13.0686L231.481 16.0759C231.736 15.9281 232.009 15.8144 232.292 15.7381L231.389 12.3802C231.619 12.3184 231.853 12.2673 232.088 12.2302L231.532 8.73756C230.996 8.82279 230.462 8.95143 229.946 9.11952L231.026 12.4275C230.682 12.5396 230.348 12.6788 230.026 12.8434L228.44 9.74667C227.957 9.99394 227.491 10.2812 227.052 10.6014L229.137 13.4577C229.329 13.3177 229.53 13.1883 229.735 13.0686Z" fill="white"/>
<path d="M239.102 15.5608L236.096 17.3078C236.244 17.5624 236.357 17.8355 236.434 18.1188L239.792 17.2139C239.853 17.4438 239.904 17.6771 239.942 17.9118L243.434 17.3556C243.348 16.819 243.219 16.2853 243.051 15.7694L239.743 16.8508C239.631 16.5076 239.492 16.1735 239.327 15.8515L242.423 14.2629C242.175 13.7809 241.888 13.3143 241.568 12.876L238.712 14.9621C238.852 15.1541 238.982 15.3548 239.102 15.5608Z" fill="white"/>
<path d="M237.876 9.73352C237.391 9.4873 236.884 9.27763 236.367 9.11085L235.281 12.4762C235.621 12.5859 235.955 12.7237 236.274 12.8858L237.876 9.73352Z" fill="white"/>
<path d="M236.62 13.0067L234.855 16.0705C235.11 16.2179 235.346 16.3983 235.556 16.6072L240.507 11.639C240.123 11.2562 239.706 10.9008 239.267 10.5825L237.225 13.3989C237.03 13.2579 236.828 13.1269 236.62 13.0067Z" fill="white"/>
<path d="M227.182 15.5498L230.245 17.3171C230.392 17.0617 230.573 16.8257 230.782 16.6158L225.816 11.6626C225.433 12.0467 225.078 12.4636 224.759 12.9022L227.575 14.9456C227.434 15.14 227.302 15.3415 227.182 15.5498Z" fill="white"/>
<path d="M234.245 12.171L234.779 8.73303C234.251 8.65095 233.711 8.60939 233.173 8.60939H233.165V15.6237H233.173C233.469 15.6237 233.761 15.6616 234.043 15.7363L234.95 12.3183C234.718 12.2567 234.483 12.2081 234.245 12.171Z" fill="white"/>
<path d="M229.909 18.1296L226.492 17.2202C226.43 17.4523 226.381 17.6874 226.344 17.925L222.907 17.3891C222.824 17.9189 222.782 18.4614 222.782 19.0009H229.796C229.796 18.7047 229.834 18.4114 229.909 18.1296Z" fill="white"/>
<path d="M239.287 22.1049L242.438 23.7093C242.684 23.225 242.894 22.7173 243.061 22.2001L239.696 21.1121C239.587 21.4522 239.449 21.7863 239.287 22.1049Z" fill="white"/>
<path d="M236.61 24.9314L234.864 21.9241C234.609 22.0719 234.337 22.1855 234.053 22.2618L234.956 25.6198C234.726 25.6817 234.493 25.7327 234.258 25.7698L234.813 29.2622C235.35 29.1769 235.883 29.0483 236.399 28.8802L235.319 25.5722C235.663 25.4602 235.997 25.321 236.319 25.1563L237.905 28.2531C238.388 28.0058 238.854 27.7185 239.293 27.3984L237.208 24.542C237.016 24.682 236.816 24.8117 236.61 24.9314Z" fill="white"/>
<path d="M227.245 22.4408L230.251 20.6939C230.103 20.4392 229.989 20.1661 229.913 19.8828L226.555 20.7877C226.493 20.5578 226.442 20.3245 226.405 20.0898L222.912 20.6459C222.998 21.1826 223.127 21.7164 223.295 22.2322L226.603 21.1507C226.715 21.4941 226.854 21.8282 227.019 22.1502L223.924 23.7388C224.171 24.2207 224.459 24.6874 224.779 25.1256L227.634 23.0396C227.494 22.8475 227.364 22.6468 227.245 22.4408Z" fill="white"/>
<path d="M228.47 28.2675C228.955 28.5138 229.462 28.7234 229.979 28.8902L231.065 25.5249C230.725 25.4152 230.391 25.2773 230.072 25.1152L228.47 28.2675Z" fill="white"/>
<path d="M229.725 24.9943L231.49 21.9304C231.234 21.7831 230.999 21.6026 230.789 21.3938L225.838 26.362C226.222 26.7447 226.639 27.1001 227.078 27.4184L229.12 24.6021C229.315 24.7431 229.516 24.8741 229.725 24.9943Z" fill="white"/>
<path d="M239.165 22.4523L236.102 20.6851C235.954 20.9405 235.773 21.1764 235.564 21.3863L240.53 26.3398C240.913 25.9557 241.269 25.5388 241.587 25.1003L238.772 23.0568C238.913 22.8624 239.044 22.6606 239.165 22.4523Z" fill="white"/>
<path d="M232.303 22.2637L231.396 25.6817C231.629 25.7432 231.864 25.7919 232.101 25.829L231.567 29.2669C232.095 29.349 232.635 29.3906 233.173 29.3906H233.182V22.3763H233.173C232.878 22.3763 232.585 22.3384 232.303 22.2637Z" fill="white"/>
<path d="M236.55 19.0017C236.55 19.2979 236.512 19.591 236.437 19.8729L239.854 20.7824C239.916 20.5503 239.965 20.3152 240.002 20.0776L243.44 20.6138C243.523 20.0839 243.564 19.5415 243.564 19.0019L236.55 19.0017Z" fill="white"/>
<path d="M37.3094 27.3838C36.9918 27.3838 36.7536 27.3176 36.5948 27.1853C36.4448 27.0618 36.3698 26.9074 36.3698 26.7221C36.3698 26.5015 36.4624 26.2722 36.6477 26.034C36.833 25.7958 37.0932 25.6105 37.4285 25.4782C37.8343 25.3194 38.2754 24.9709 38.7518 24.4327C39.237 23.8857 39.7355 23.224 40.2472 22.4477C40.7589 21.6713 41.275 20.8067 41.7955 19.8539C42.3249 18.9011 42.8322 17.935 43.3174 16.9558C43.8114 15.9765 44.2702 15.0193 44.6937 14.0841C45.126 13.1401 45.5097 12.2887 45.845 11.53C46.2067 10.7007 46.489 10.0479 46.6919 9.57146C46.8948 9.09506 47.0228 8.79951 47.0757 8.68482C47.1992 8.41132 47.3712 8.21282 47.5918 8.08931C47.8124 7.9658 48.0373 7.90404 48.2667 7.90404C48.5843 7.90404 48.8269 7.99226 48.9946 8.16871C49.1622 8.33633 49.2592 8.64071 49.2857 9.08182C49.3386 9.9817 49.3783 10.7669 49.4048 11.4374C49.4313 12.1079 49.4489 12.7828 49.4577 13.4621C49.4754 14.1326 49.4842 14.9399 49.4842 15.8839V17.7233C49.4842 18.0586 49.4754 18.4159 49.4577 18.7952C49.4489 19.1658 49.4445 19.5584 49.4445 19.973C50.5032 18.0497 51.4384 16.3514 52.25 14.8781C53.0705 13.4048 53.7851 12.1741 54.3938 11.186C54.8967 10.3478 55.3731 9.63763 55.8231 9.05536C56.273 8.47308 56.6347 8.18194 56.9082 8.18194H57.0008L57.0802 8.16871H57.1596C57.3714 8.16871 57.539 8.30105 57.6625 8.56572C57.786 8.83039 57.8478 9.17446 57.8478 9.59793C57.7949 10.2243 57.7066 11.0713 57.5831 12.1388C57.4596 13.1974 57.314 14.4105 57.1464 15.778C56.9876 17.0749 56.8288 18.3497 56.67 19.6025C56.52 20.8552 56.3965 21.9669 56.2995 22.9373C56.2906 22.9991 56.2818 23.0564 56.273 23.1094C56.2642 23.1623 56.2642 23.2196 56.273 23.2814L56.4186 25.0414C56.4539 25.3943 56.4274 25.7472 56.3392 26.1001C56.2509 26.4442 56.0569 26.7309 55.7569 26.9603C55.4658 27.1897 55.0202 27.3044 54.4203 27.3044C54.1821 27.3044 53.9924 27.2117 53.8513 27.0265C53.7101 26.85 53.6395 26.528 53.6395 26.0604C53.7101 25.3723 53.8027 24.5298 53.9174 23.5328C54.0321 22.5359 54.1556 21.4684 54.288 20.3303C54.4291 19.1922 54.5703 18.0674 54.7114 16.9558C54.8526 15.8442 54.9849 14.8296 55.1084 13.9121L52.3426 19.2055C51.9103 20.0259 51.5133 20.767 51.1516 21.4287C50.7987 22.0904 50.512 22.6241 50.2914 23.03C49.8944 23.5681 49.493 24.0445 49.0872 24.4592C48.6814 24.865 48.2932 25.0679 47.9226 25.0679C47.5609 25.0679 47.3448 24.9709 47.2742 24.7768C47.2036 24.5739 47.1639 24.3754 47.1551 24.1813C47.1022 22.9285 47.0625 21.6669 47.036 20.3965C47.0184 19.1172 47.0095 17.8601 47.0095 16.6249V14.8913C46.4714 16.1176 45.8715 17.3748 45.2098 18.6629C44.5569 19.951 43.8776 21.164 43.1718 22.3021C42.466 23.449 41.7514 24.4459 41.028 25.2929C40.3045 26.1398 39.6296 26.6956 39.0033 26.9603C38.6327 27.1103 38.3107 27.2162 38.0372 27.2779C37.7637 27.3485 37.5211 27.3838 37.3094 27.3838ZM62.0952 27.3308C61.7953 27.3308 61.438 27.247 61.0233 27.0794C60.6087 26.9118 60.2425 26.6339 59.9249 26.2457C59.6161 25.8575 59.4617 25.337 59.4617 24.6841C59.4617 24.1372 59.5853 23.4534 59.8323 22.6329C60.0793 21.8125 60.4675 21.0052 60.9968 20.2112C61.5262 19.3996 62.2011 18.7246 63.0216 18.1865C63.8509 17.6483 64.8081 17.3792 65.8932 17.3792C66.2814 17.3792 66.6211 17.4278 66.9122 17.5248C67.2034 17.6219 67.4504 17.7277 67.6533 17.8424C67.768 17.913 67.8739 17.988 67.9709 18.0674C68.0768 18.138 68.1738 18.2174 68.262 18.3056L68.7252 18.0806C68.8575 18.0189 68.9943 17.9659 69.1355 17.9218C69.2854 17.8689 69.4134 17.8424 69.5192 17.8424C69.8545 17.8424 70.128 17.935 70.3397 18.1203C70.5514 18.3056 70.6573 18.5085 70.6573 18.7291C70.6573 18.7996 70.6529 18.8482 70.6441 18.8746C70.5823 19.1217 70.4676 19.4613 70.3 19.8936C70.1412 20.3259 69.9692 20.8067 69.7839 21.3361C69.5986 21.8478 69.4398 22.3418 69.3075 22.8182C69.184 23.2946 69.1222 23.6872 69.1222 23.996C69.1222 24.2607 69.1663 24.4812 69.2546 24.6577C69.3428 24.8253 69.4928 24.9091 69.7045 24.9091C69.9603 24.9091 70.3044 24.7635 70.7367 24.4724C71.169 24.1724 71.6145 23.8196 72.0733 23.4137C72.3203 23.1932 72.5762 22.9594 72.8408 22.7123C73.1055 22.4565 73.3746 22.1874 73.6481 21.9051C73.7892 21.7904 73.926 21.7331 74.0583 21.7331C74.2348 21.7331 74.3803 21.8213 74.495 21.9977C74.6185 22.1654 74.6803 22.355 74.6803 22.5668C74.6803 22.8138 74.5965 23.0211 74.4289 23.1888C74.076 23.5152 73.7142 23.8637 73.3437 24.2342C72.9732 24.6047 72.4615 25.0591 71.8086 25.5973C71.2263 26.0737 70.6264 26.4839 70.0089 26.828C69.3913 27.1632 68.8355 27.3308 68.3414 27.3308C67.7239 27.3308 67.2739 27.0926 66.9916 26.6162C66.7093 26.131 66.5681 25.6149 66.5681 25.0679C66.5681 24.6709 66.6255 24.318 66.7402 24.0092C66.3785 24.4945 65.9506 24.9973 65.4565 25.5179C64.9625 26.0296 64.4287 26.4618 63.8553 26.8147C63.2818 27.1588 62.6951 27.3308 62.0952 27.3308ZM63.1539 25.0017C63.4362 25.0017 63.7891 24.8209 64.2126 24.4592C64.6449 24.0975 65.0595 23.674 65.4565 23.1888C65.8977 22.6594 66.2461 22.1786 66.502 21.7463C66.7578 21.314 66.8858 21.0229 66.8858 20.8729C66.8858 20.5376 66.6917 20.273 66.3035 20.0789C65.9153 19.876 65.5668 19.7745 65.258 19.7745C64.711 19.7745 64.1905 19.951 63.6965 20.3038C63.2112 20.6567 62.8142 21.1111 62.5055 21.6669C62.1967 22.2139 62.0423 22.7829 62.0423 23.374C62.0423 23.7181 62.104 24.0754 62.2276 24.4459C62.3599 24.8165 62.6687 25.0017 63.1539 25.0017ZM73.4226 27.3308C73.1138 27.3308 72.8712 27.2338 72.6947 27.0397C72.5183 26.8456 72.4301 26.6074 72.4301 26.3251C72.4301 26.0957 72.5624 25.6678 72.8271 25.0414C73.0917 24.4062 73.4005 23.7269 73.7534 23.0035C74.2034 22.0595 74.6004 21.2434 74.9444 20.5553C75.2885 19.8583 75.5444 19.329 75.712 18.9673C75.8884 18.5879 76.109 18.3056 76.3737 18.1203C76.6383 17.935 76.8986 17.8424 77.1544 17.8424C77.3662 17.8424 77.5559 17.9218 77.7235 18.0806C77.8911 18.2306 77.9749 18.4556 77.9749 18.7555C77.9749 18.8702 77.9617 18.9937 77.9352 19.1261C77.9087 19.2584 77.8602 19.3996 77.7896 19.5495C78.0631 19.2055 78.469 18.8702 79.0071 18.5438C79.5453 18.2085 80.1276 17.9306 80.754 17.7101C81.3803 17.4895 81.9582 17.3792 82.4875 17.3792C82.9551 17.3792 83.3433 17.4939 83.6521 17.7233C83.9697 17.9439 84.1285 18.3232 84.1285 18.8614C84.1285 19.3202 84.027 19.8186 83.8241 20.3568C83.6212 20.8861 83.3786 21.3978 83.0963 21.8919C82.7963 22.4124 82.514 22.8712 82.2493 23.2682C81.9935 23.6563 81.795 23.9784 81.6538 24.2342C81.5391 24.3754 81.4818 24.5386 81.4818 24.7238C81.4818 24.9003 81.5744 24.9885 81.7597 24.9885C81.8215 24.9885 81.892 24.9841 81.9714 24.9753C82.0508 24.9576 82.1479 24.9091 82.2626 24.8297C82.9243 24.5827 83.5815 24.2695 84.2344 23.8901C84.896 23.5108 85.5004 23.1182 86.0474 22.7123C86.6032 22.3065 87.0487 21.9492 87.3839 21.6404C87.5251 21.5257 87.6619 21.4684 87.7942 21.4684C88.1118 21.4684 88.2706 21.6713 88.2706 22.0771C88.2706 22.3506 88.1824 22.655 88.0059 22.9903C87.8383 23.3255 87.5692 23.6387 87.1987 23.9298C86.5546 24.3886 85.9503 24.8165 85.3857 25.2135C84.8299 25.6017 84.2388 25.9546 83.6124 26.2722C82.986 26.5898 82.2405 26.8721 81.3759 27.1191C80.926 27.2603 80.5422 27.3308 80.2246 27.3308C79.3247 27.3308 78.8748 26.8368 78.8748 25.8487C78.8748 25.7869 78.8748 25.7296 78.8748 25.6767C78.8836 25.6149 78.8924 25.5487 78.9013 25.4782C78.9277 25.0812 79.0689 24.6224 79.3247 24.1019C79.5806 23.5725 79.8585 23.052 80.1584 22.5403C80.4584 22.0463 80.7275 21.5831 80.9657 21.1508C81.2039 20.7185 81.323 20.3965 81.323 20.1847C81.323 19.8671 81.173 19.7083 80.8731 19.7083C80.3172 19.7083 79.7835 19.8716 79.2718 20.198C78.7689 20.5244 78.2925 20.9391 77.8426 21.4419C77.4015 21.936 76.9956 22.4565 76.6251 23.0035C76.2546 23.5417 75.9281 24.0313 75.6458 24.4724C75.4429 24.8077 75.2444 25.2003 75.0503 25.6502C74.865 26.1001 74.6445 26.4927 74.3886 26.828C74.1416 27.1632 73.8196 27.3308 73.4226 27.3308ZM87.7937 27.3308C87.0967 27.3308 86.6115 27.1588 86.338 26.8147C86.0645 26.4707 85.9277 26.0472 85.9277 25.5443C85.9277 25.1032 86.0027 24.6444 86.1527 24.168C86.3027 23.6916 86.4703 23.2637 86.6556 22.8844L88.2039 19.7083H87.6349C87.1408 19.7083 86.8011 19.6289 86.6159 19.4701C86.4306 19.3113 86.338 19.1305 86.338 18.9276C86.338 18.7246 86.4527 18.4953 86.682 18.2394C86.9114 17.9747 87.2246 17.8424 87.6216 17.8424H89.0508L91.8431 12.2976C92.0196 11.9623 92.2357 11.7241 92.4916 11.583C92.7562 11.433 93.0297 11.358 93.312 11.358C93.5767 11.358 93.8193 11.4286 94.0399 11.5697C94.2604 11.7109 94.3707 11.9447 94.3707 12.2711C94.3707 12.4387 94.331 12.6108 94.2516 12.7872C94.181 12.9548 94.084 13.1533 93.9605 13.3827C93.8193 13.6474 93.6296 14.0047 93.3914 14.4546C93.1532 14.8958 92.8577 15.4295 92.5048 16.0559L91.552 17.8424H95.8661C96.2896 17.8424 96.6337 17.8998 96.8983 18.0144C97.1718 18.1203 97.3086 18.3629 97.3086 18.7423C97.3086 18.9364 97.238 19.1261 97.0968 19.3113C96.9557 19.4966 96.6513 19.6069 96.1837 19.6422H90.6786L89.7522 21.4949L88.9317 23.1755C88.8259 23.3873 88.72 23.6343 88.6141 23.9166C88.5171 24.1901 88.4686 24.4327 88.4686 24.6444C88.4686 24.9091 88.5921 25.0414 88.8391 25.0414C89.1214 25.0414 89.5008 24.9223 89.9772 24.6841C90.4536 24.4459 90.9565 24.1548 91.4858 23.8107C92.024 23.4667 92.5401 23.1094 93.0341 22.7388C93.5282 22.3595 93.9825 21.9933 94.3972 21.6404C94.5472 21.5434 94.6795 21.4949 94.7942 21.4949C94.9883 21.4949 95.1339 21.6007 95.2309 21.8125C95.3279 22.0242 95.3368 22.2801 95.2574 22.58C95.1868 22.88 94.9795 23.1667 94.6354 23.4402C94.0619 23.9607 93.4797 24.4548 92.8886 24.9223C92.3063 25.3811 91.7284 25.7913 91.155 26.1531C90.5727 26.506 89.9992 26.7883 89.4346 27C88.87 27.2206 88.323 27.3308 87.7937 27.3308ZM95.4421 27.3308C94.7187 27.3308 94.2202 27.15 93.9467 26.7883C93.682 26.4266 93.5497 25.9854 93.5497 25.4649C93.5497 25.0326 93.6115 24.5915 93.735 24.1416C93.8673 23.6828 94.0217 23.2637 94.1982 22.8844C94.5069 22.1962 94.8201 21.5125 95.1377 20.8332C95.4553 20.1539 95.7465 19.5319 96.0111 18.9673L100.021 10.4316C100.224 9.99052 100.528 9.7038 100.934 9.57146C101.34 9.43913 101.71 9.45236 102.046 9.61116C102.39 9.76114 102.562 10.039 102.562 10.4449C102.562 10.6037 102.522 10.7713 102.443 10.9477C102.372 11.1242 102.279 11.3139 102.165 11.5168C101.847 12.1167 101.441 12.9063 100.947 13.8856C100.462 14.8649 99.9239 15.9677 99.3328 17.194C98.6887 18.5438 98.1462 19.6775 97.705 20.595C97.2727 21.5037 96.8669 22.3639 96.4876 23.1755C96.3905 23.3784 96.2935 23.6166 96.1964 23.8901C96.1082 24.1548 96.0641 24.393 96.0641 24.6047C96.0641 24.8959 96.192 25.0414 96.4479 25.0414C96.7302 25.0414 97.1051 24.9268 97.5727 24.6974C98.0491 24.4592 98.5432 24.1636 99.0549 23.8107C99.5754 23.4667 100.078 23.1094 100.563 22.7388C101.049 22.3595 101.499 21.9933 101.913 21.6404C102.054 21.5257 102.222 21.4684 102.416 21.4684C102.822 21.4684 103.025 21.6934 103.025 22.1433C103.025 22.3286 102.963 22.5359 102.84 22.7653C102.716 22.9947 102.5 23.2196 102.191 23.4402C101.627 23.9607 101.058 24.4548 100.484 24.9223C99.9194 25.3811 99.3504 25.7913 98.7769 26.1531C98.2123 26.506 97.6477 26.7883 97.0831 27C96.5184 27.2206 95.9714 27.3308 95.4421 27.3308ZM104.123 27.3308C103.417 27.3308 102.813 27.1588 102.31 26.8147C101.816 26.4618 101.436 26.0031 101.172 25.4385C100.916 24.865 100.788 24.2518 100.788 23.599C100.788 23.0255 100.951 22.3859 101.278 21.6801C101.613 20.9655 102.089 20.2818 102.707 19.6289C103.324 18.9761 104.061 18.4379 104.917 18.0144C105.781 17.5822 106.721 17.366 107.736 17.366C108.468 17.366 109.015 17.5425 109.376 17.8953C109.738 18.2482 109.919 18.7379 109.919 19.3643C109.919 19.7348 109.822 20.123 109.628 20.5288C109.434 20.9346 109.099 21.3449 108.622 21.7595C108.146 22.183 107.506 22.6153 106.703 23.0564C105.909 23.4887 104.912 23.9254 103.713 24.3665C103.81 24.9135 104.251 25.187 105.036 25.187C105.645 25.187 106.302 25.0635 107.008 24.8165C107.713 24.5606 108.393 24.2695 109.046 23.9431C109.698 23.6255 110.259 23.3255 110.726 23.0432C111.194 22.7609 111.472 22.6021 111.56 22.5668C111.639 22.5138 111.71 22.483 111.772 22.4741C111.842 22.4653 111.904 22.4609 111.957 22.4609C112.169 22.4609 112.314 22.5447 112.394 22.7123C112.482 22.8712 112.526 23.0035 112.526 23.1094C112.526 23.1888 112.517 23.2858 112.5 23.4005C112.482 23.5064 112.416 23.6299 112.301 23.771C112.186 23.8857 111.851 24.1372 111.295 24.5253C110.74 24.9135 110.144 25.2885 109.509 25.6502C108.732 26.0825 107.868 26.4707 106.915 26.8147C105.962 27.1588 105.031 27.3308 104.123 27.3308ZM103.514 22.8447C104.087 22.5447 104.67 22.1962 105.261 21.7992C105.861 21.3934 106.315 21.0979 106.624 20.9126C107.039 20.6479 107.312 20.4141 107.444 20.2112C107.594 19.9907 107.669 19.8054 107.669 19.6554C107.669 19.5231 107.625 19.4172 107.537 19.3378C107.458 19.2584 107.365 19.2099 107.259 19.1922L107.14 19.179H107.021C106.536 19.179 106.086 19.3202 105.671 19.6025C105.265 19.876 104.921 20.22 104.639 20.6347C104.339 21.067 104.096 21.4728 103.911 21.8522C103.735 22.2315 103.602 22.5624 103.514 22.8447ZM121.63 27.5029C121.277 27.5029 120.999 27.3882 120.796 27.1588C120.593 26.9383 120.492 26.6648 120.492 26.3383C120.492 26.0825 120.536 25.8355 120.624 25.5973C120.712 25.3591 120.827 25.1385 120.968 24.9356L126.407 14.1238C126.866 13.4092 127.32 12.9284 127.77 12.6813C128.229 12.4255 128.582 12.2976 128.829 12.2976C129.226 12.2976 129.508 12.4123 129.676 12.6416C129.843 12.871 129.927 13.1445 129.927 13.4621C129.927 13.9826 129.764 14.5208 129.437 15.0766C129.155 15.5971 128.838 16.1794 128.485 16.8234C128.132 17.4586 127.638 18.3365 127.002 19.4569C126.411 20.4803 125.811 21.4728 125.203 22.4344C124.603 23.3873 124.021 24.2474 123.456 25.015C124.85 24.8738 126.182 24.4239 127.452 23.6652C128.723 22.9064 129.843 21.9801 130.814 20.8861C131.775 19.8098 132.525 18.6717 133.063 17.4719C133.61 16.2632 133.884 15.1516 133.884 14.137C133.884 12.9548 133.588 11.9844 132.997 11.2257C132.406 10.4669 131.493 10.0876 130.258 10.0876C129.499 10.0876 128.736 10.1802 127.969 10.3655C127.21 10.5507 126.508 10.8022 125.864 11.1198C125.22 11.4286 124.687 11.7771 124.263 12.1652C123.857 12.6064 123.544 12.9901 123.324 13.3165C123.112 13.643 122.852 13.9959 122.543 14.3752C122.278 14.684 121.996 14.9355 121.696 15.1295C121.396 15.3236 121.043 15.4207 120.637 15.4207C119.878 15.4207 119.499 15.0854 119.499 14.4149C119.499 13.7709 119.795 13.0739 120.386 12.324C120.986 11.5741 121.793 10.8639 122.807 10.1934C123.813 9.53176 124.982 8.98478 126.314 8.55248C127.646 8.12019 129.027 7.90404 130.456 7.90404C131.974 7.90404 133.222 8.19518 134.201 8.77745C135.19 9.3509 135.922 10.1317 136.398 11.1198C136.883 12.1079 137.126 13.2107 137.126 14.4282C137.126 15.6545 136.848 16.9469 136.292 18.3056C135.745 19.6554 134.938 20.9479 133.871 22.183C132.812 23.4093 131.52 24.4636 129.993 25.3458C128.846 26.0075 127.572 26.5324 126.169 26.9206C124.766 27.3088 123.253 27.5029 121.63 27.5029ZM139.918 27.3308C139.212 27.3308 138.608 27.1588 138.105 26.8147C137.611 26.4618 137.231 26.0031 136.967 25.4385C136.711 24.865 136.583 24.2518 136.583 23.599C136.583 23.0255 136.746 22.3859 137.073 21.6801C137.408 20.9655 137.884 20.2818 138.502 19.6289C139.119 18.9761 139.856 18.4379 140.712 18.0144C141.576 17.5822 142.516 17.366 143.531 17.366C144.263 17.366 144.81 17.5425 145.172 17.8953C145.533 18.2482 145.714 18.7379 145.714 19.3643C145.714 19.7348 145.617 20.123 145.423 20.5288C145.229 20.9346 144.894 21.3449 144.417 21.7595C143.941 22.183 143.301 22.6153 142.498 23.0564C141.704 23.4887 140.707 23.9254 139.508 24.3665C139.605 24.9135 140.046 25.187 140.831 25.187C141.44 25.187 142.097 25.0635 142.803 24.8165C143.509 24.5606 144.188 24.2695 144.841 23.9431C145.494 23.6255 146.054 23.3255 146.521 23.0432C146.989 22.7609 147.267 22.6021 147.355 22.5668C147.434 22.5138 147.505 22.483 147.567 22.4741C147.637 22.4653 147.699 22.4609 147.752 22.4609C147.964 22.4609 148.109 22.5447 148.189 22.7123C148.277 22.8712 148.321 23.0035 148.321 23.1094C148.321 23.1888 148.312 23.2858 148.295 23.4005C148.277 23.5064 148.211 23.6299 148.096 23.771C147.981 23.8857 147.646 24.1372 147.09 24.5253C146.535 24.9135 145.939 25.2885 145.304 25.6502C144.528 26.0825 143.663 26.4707 142.71 26.8147C141.757 27.1588 140.827 27.3308 139.918 27.3308ZM139.309 22.8447C139.883 22.5447 140.465 22.1962 141.056 21.7992C141.656 21.3934 142.11 21.0979 142.419 20.9126C142.834 20.6479 143.107 20.4141 143.239 20.2112C143.389 19.9907 143.464 19.8054 143.464 19.6554C143.464 19.5231 143.42 19.4172 143.332 19.3378C143.253 19.2584 143.16 19.2099 143.054 19.1922L142.935 19.179H142.816C142.331 19.179 141.881 19.3202 141.466 19.6025C141.06 19.876 140.716 20.22 140.434 20.6347C140.134 21.067 139.891 21.4728 139.706 21.8522C139.53 22.2315 139.397 22.5624 139.309 22.8447ZM149.393 27.3308C148.775 27.3308 148.232 27.1103 147.765 26.6692C147.297 26.2192 147.063 25.5664 147.063 24.7106C147.063 24.0136 147.16 23.2549 147.355 22.4344C147.549 21.6051 147.765 20.8288 148.003 20.1053C148.241 19.3731 148.426 18.8085 148.559 18.4115C148.735 18.0409 148.956 17.7762 149.22 17.6174C149.494 17.4498 149.759 17.366 150.014 17.366C150.244 17.366 150.469 17.441 150.689 17.591C150.91 17.741 151.02 17.9306 151.02 18.16C151.02 18.2659 151.003 18.3497 150.967 18.4115C150.791 18.9849 150.579 19.6113 150.332 20.2906C150.094 20.9611 149.882 21.6272 149.697 22.2889C149.512 22.9506 149.419 23.5505 149.419 24.0886C149.419 24.221 149.45 24.4018 149.512 24.6312C149.573 24.8518 149.657 24.962 149.763 24.962C149.992 24.962 150.248 24.8341 150.531 24.5783C150.813 24.3224 151.122 23.9695 151.457 23.5196C151.88 23.0785 152.277 22.5138 152.648 21.8257C153.027 21.1287 153.38 20.4627 153.707 19.8274C154.024 19.2011 154.337 18.6673 154.646 18.2262C154.955 17.7762 155.264 17.5513 155.573 17.5513C155.934 17.5513 156.19 17.6704 156.34 17.9086C156.49 18.138 156.565 18.4159 156.565 18.7423C156.565 19.2363 156.45 19.7083 156.221 20.1583C155.992 20.6082 155.7 21.0802 155.348 21.5743C155.004 22.0683 154.646 22.6285 154.276 23.2549C154.426 23.4402 154.646 23.5328 154.937 23.5328C155.599 23.5328 156.27 23.3784 156.949 23.0697C157.628 22.7521 158.277 22.3506 158.894 21.8654C159.027 21.786 159.15 21.7463 159.265 21.7463C159.424 21.7463 159.551 21.8169 159.648 21.958C159.754 22.0992 159.807 22.2801 159.807 22.5006C159.807 22.7388 159.737 22.9991 159.596 23.2814C159.454 23.5549 159.221 23.8063 158.894 24.0357C158.233 24.5386 157.571 24.9356 156.909 25.2267C156.247 25.509 155.515 25.6502 154.712 25.6502C154.448 25.6502 154.192 25.6017 153.945 25.5046C153.698 25.4076 153.376 25.2355 152.979 24.9885C152.397 25.7561 151.81 26.3383 151.219 26.7353C150.636 27.1323 150.028 27.3308 149.393 27.3308ZM163.724 27.2911C162.083 27.2911 160.905 26.9162 160.191 26.1663C159.476 25.4164 159.119 24.4592 159.119 23.2946C159.119 22.333 159.286 21.3272 159.622 20.2774C159.966 19.2187 160.429 18.1688 161.011 17.1278C161.602 16.0779 162.273 15.0722 163.023 14.1106C163.781 13.1401 164.575 12.2623 165.405 11.4771C166.234 10.6831 167.059 10.0214 167.879 9.49206C168.647 8.99801 169.419 8.60983 170.195 8.32751C170.971 8.0452 171.735 7.90404 172.484 7.90404C173.234 7.90404 173.878 8.08049 174.417 8.43338C174.964 8.78627 175.237 9.40384 175.237 10.2861C175.237 10.6478 175.153 11.1021 174.986 11.6491C174.827 12.1873 174.597 12.7255 174.297 13.2636C173.989 13.8194 173.618 14.2826 173.186 14.6531C172.762 15.0149 172.304 15.1957 171.81 15.1957C171.633 15.1957 171.395 15.156 171.095 15.0766C170.795 14.9972 170.645 14.7987 170.645 14.4811C170.645 14.3752 170.671 14.2517 170.724 14.1106C170.786 13.9694 170.892 13.8062 171.042 13.6209C171.254 13.3915 171.479 13.1092 171.717 12.774C171.955 12.4299 172.158 12.077 172.326 11.7153C172.502 11.3536 172.59 11.036 172.59 10.7625C172.59 10.1979 172.326 9.91554 171.796 9.91554C171.417 9.91554 170.989 10.039 170.513 10.2861C170.036 10.5331 169.538 10.8728 169.017 11.3051C168.488 11.7373 167.915 12.2932 167.297 12.9725C166.688 13.643 166.084 14.3885 165.484 15.2089C164.884 16.0206 164.337 16.8587 163.843 17.7233C163.349 18.5879 162.952 19.4393 162.652 20.2774C162.361 21.1067 162.215 21.8698 162.215 22.5668C162.215 23.2108 162.387 23.7269 162.731 24.1151C163.075 24.5033 163.644 24.6974 164.439 24.6974C164.968 24.6974 165.541 24.565 166.159 24.3004C166.785 24.0357 167.42 23.7005 168.064 23.2946C168.717 22.88 169.348 22.4521 169.957 22.011C170.574 21.5699 171.139 21.1684 171.651 20.8067C172.171 20.445 172.612 20.1847 172.974 20.0259C173.009 19.9907 173.062 19.973 173.133 19.973C173.265 19.973 173.358 20.0789 173.411 20.2906C173.455 20.5376 173.477 20.7847 173.477 21.0317C173.477 21.1817 173.455 21.3669 173.411 21.5875C173.376 21.7992 173.252 22.0463 173.04 22.3286C172.467 23.0167 171.792 23.6608 171.016 24.2607C170.239 24.8606 169.423 25.3899 168.567 25.8487C167.712 26.2986 166.865 26.6515 166.027 26.9074C165.197 27.1632 164.43 27.2911 163.724 27.2911ZM174.945 27.3308C174.645 27.3308 174.288 27.247 173.873 27.0794C173.459 26.9118 173.093 26.6339 172.775 26.2457C172.466 25.8575 172.312 25.337 172.312 24.6841C172.312 24.1372 172.435 23.4534 172.682 22.6329C172.929 21.8125 173.318 21.0052 173.847 20.2112C174.376 19.3996 175.051 18.7246 175.872 18.1865C176.701 17.6483 177.658 17.3792 178.743 17.3792C179.132 17.3792 179.471 17.4278 179.762 17.5248C180.054 17.6219 180.301 17.7277 180.503 17.8424C180.618 17.913 180.724 17.988 180.821 18.0674C180.927 18.138 181.024 18.2174 181.112 18.3056L181.575 18.0806C181.708 18.0189 181.844 17.9659 181.986 17.9218C182.136 17.8689 182.264 17.8424 182.369 17.8424C182.705 17.8424 182.978 17.935 183.19 18.1203C183.402 18.3056 183.507 18.5085 183.507 18.7291C183.507 18.7996 183.503 18.8482 183.494 18.8746C183.432 19.1217 183.318 19.4613 183.15 19.8936C182.991 20.3259 182.819 20.8067 182.634 21.3361C182.449 21.8478 182.29 22.3418 182.158 22.8182C182.034 23.2946 181.972 23.6872 181.972 23.996C181.972 24.2607 182.017 24.4812 182.105 24.6577C182.193 24.8253 182.343 24.9091 182.555 24.9091C182.811 24.9091 183.155 24.7635 183.587 24.4724C184.019 24.1724 184.465 23.8196 184.923 23.4137C185.17 23.1932 185.426 22.9594 185.691 22.7123C185.956 22.4565 186.225 22.1874 186.498 21.9051C186.639 21.7904 186.776 21.7331 186.908 21.7331C187.085 21.7331 187.231 21.8213 187.345 21.9977C187.469 22.1654 187.53 22.355 187.53 22.5668C187.53 22.8138 187.447 23.0211 187.279 23.1888C186.926 23.5152 186.564 23.8637 186.194 24.2342C185.823 24.6047 185.312 25.0591 184.659 25.5973C184.077 26.0737 183.477 26.4839 182.859 26.828C182.241 27.1632 181.686 27.3308 181.192 27.3308C180.574 27.3308 180.124 27.0926 179.842 26.6162C179.559 26.131 179.418 25.6149 179.418 25.0679C179.418 24.6709 179.476 24.318 179.59 24.0092C179.229 24.4945 178.801 24.9973 178.307 25.5179C177.813 26.0296 177.279 26.4618 176.705 26.8147C176.132 27.1588 175.545 27.3308 174.945 27.3308ZM176.004 25.0017C176.286 25.0017 176.639 24.8209 177.063 24.4592C177.495 24.0975 177.91 23.674 178.307 23.1888C178.748 22.6594 179.096 22.1786 179.352 21.7463C179.608 21.314 179.736 21.0229 179.736 20.8729C179.736 20.5376 179.542 20.273 179.154 20.0789C178.765 19.876 178.417 19.7745 178.108 19.7745C177.561 19.7745 177.041 19.951 176.547 20.3038C176.061 20.6567 175.664 21.1111 175.356 21.6669C175.047 22.2139 174.892 22.7829 174.892 23.374C174.892 23.7181 174.954 24.0754 175.078 24.4459C175.21 24.8165 175.519 25.0017 176.004 25.0017ZM185.717 27.3308C185.276 27.3308 185.055 27.1059 185.055 26.6559C185.055 26.5589 185.069 26.4398 185.095 26.2986C185.13 26.1487 185.196 25.9854 185.293 25.809C185.443 25.5267 185.607 25.1958 185.783 24.8165C185.96 24.4283 186.145 24.0269 186.339 23.6122C186.551 23.1623 186.793 22.6462 187.067 22.0639C187.349 21.4728 187.68 20.7935 188.059 20.0259C187.936 19.9201 187.83 19.7922 187.742 19.6422C187.662 19.4834 187.623 19.2893 187.623 19.0599C187.623 18.6452 187.781 18.3409 188.099 18.1468C188.425 17.9439 188.814 17.8424 189.264 17.8424C189.705 17.8424 190.133 17.9218 190.547 18.0806C190.971 18.2306 191.182 18.46 191.182 18.7688C191.182 18.804 191.152 18.8879 191.09 19.0202C191.037 19.1437 191.01 19.2275 191.01 19.2716C191.01 19.2893 191.015 19.2981 191.024 19.2981H191.037L191.063 19.2849C191.716 18.879 192.418 18.535 193.167 18.2527C193.917 17.9703 194.535 17.8292 195.02 17.8292C195.417 17.8292 195.721 17.9262 195.933 18.1203C196.154 18.3056 196.264 18.6232 196.264 19.0731C196.264 19.1702 196.26 19.276 196.251 19.3907C196.242 19.4966 196.224 19.6113 196.198 19.7348C196.136 20.0612 195.889 20.4847 195.457 21.0052C195.025 21.5257 194.566 22.0286 194.081 22.5138C193.86 22.7344 193.595 22.9991 193.287 23.3079C192.978 23.6078 192.709 23.8857 192.479 24.1416C192.25 24.3886 192.135 24.5562 192.135 24.6444C192.135 24.768 192.179 24.8297 192.268 24.8297C192.903 24.5562 193.622 24.221 194.425 23.824C195.227 23.4181 196.004 23.0123 196.754 22.6065C197.504 22.2007 198.117 21.861 198.593 21.5875C198.778 21.4816 198.937 21.4287 199.07 21.4287C199.44 21.4287 199.625 21.6228 199.625 22.011C199.625 22.2139 199.537 22.4477 199.361 22.7123C199.193 22.9682 198.906 23.2373 198.501 23.5196C198.121 23.7578 197.601 24.0886 196.939 24.5121C196.286 24.9268 195.638 25.3194 194.994 25.6899C194.358 26.0516 193.75 26.3604 193.167 26.6162C192.594 26.8721 192.113 27 191.725 27C191.116 27 190.657 26.8544 190.349 26.5633C190.049 26.2722 189.899 25.8972 189.899 25.4385C189.899 25.3591 189.903 25.3061 189.912 25.2797C190.009 24.715 190.212 24.168 190.521 23.6387C190.829 23.1094 191.152 22.6241 191.487 22.183C191.822 21.7507 192.118 21.3493 192.373 20.9788C192.638 20.6082 192.77 20.2906 192.77 20.0259C192.77 19.8936 192.722 19.8274 192.625 19.8274C192.484 19.8274 192.228 19.898 191.857 20.0392C191.487 20.1715 191.121 20.348 190.759 20.5685C190.397 20.7891 190.15 21.0229 190.018 21.2699C189.841 21.5787 189.616 22.011 189.343 22.5668C189.078 23.1138 188.814 23.674 188.549 24.2474C188.293 24.8209 188.077 25.2973 187.9 25.6767C187.706 26.1619 187.384 26.5589 186.934 26.8677C186.493 27.1765 186.087 27.3308 185.717 27.3308ZM199.717 27.3308C199.073 27.3308 198.54 27.15 198.116 26.7883C197.693 26.4177 197.481 25.8046 197.481 24.9488C197.481 23.8637 197.724 22.8491 198.209 21.9051C198.694 20.9611 199.307 20.1539 200.048 19.4834C200.781 18.8129 201.553 18.2968 202.364 17.935C203.185 17.5645 203.917 17.3792 204.561 17.3792C205.081 17.3792 205.514 17.4631 205.858 17.6307C206.052 17.7365 206.215 17.8556 206.347 17.988L206.453 17.763L206.692 17.2072L206.837 16.8764C206.855 16.8058 206.969 16.5235 207.181 16.0294C207.393 15.5354 207.675 14.8693 208.028 14.0312C208.355 13.2548 208.624 12.5975 208.835 12.0594C209.047 11.5124 209.157 11.2212 209.166 11.186C209.29 10.7448 209.497 10.3522 209.788 10.0082C210.079 9.6641 210.472 9.49206 210.966 9.49206C211.301 9.49206 211.579 9.56705 211.8 9.71703C212.02 9.85819 212.131 10.1361 212.131 10.5507C212.131 10.8683 212.06 11.208 211.919 11.5697C211.778 11.9314 211.654 12.2535 211.548 12.5358C211.125 13.3827 210.666 14.3223 210.172 15.3545C209.687 16.3867 209.202 17.4454 208.716 18.5306C208.231 19.6157 207.772 20.6612 207.34 21.6669C206.908 22.6638 206.533 23.5461 206.215 24.3136C206.206 24.3224 206.202 24.3445 206.202 24.3798C206.202 24.4151 206.197 24.4371 206.189 24.4459C206.189 24.6047 206.228 24.7724 206.308 24.9488C206.387 25.1164 206.515 25.2003 206.692 25.2003C206.744 25.2003 206.797 25.1914 206.85 25.1738C207.503 24.9797 208.174 24.64 208.862 24.1548C209.55 23.6696 210.185 23.1491 210.767 22.5932C211.359 22.0286 211.831 21.5346 212.183 21.1111C212.307 20.9611 212.444 20.8861 212.594 20.8861C212.726 20.8861 212.841 20.9479 212.938 21.0714C213.044 21.1949 213.097 21.3625 213.097 21.5743C213.097 21.7419 213.048 21.9404 212.951 22.1698C212.863 22.3992 212.713 22.6462 212.501 22.9109C211.813 23.6696 211.098 24.3886 210.357 25.0679C209.616 25.7384 208.875 26.2854 208.134 26.7089C207.393 27.1235 206.669 27.3308 205.964 27.3308C205.32 27.3308 204.812 27.15 204.442 26.7883C204.071 26.4177 203.886 25.8663 203.886 25.1341V24.9885C203.886 24.9268 203.89 24.8826 203.899 24.8562C203.493 25.5884 202.885 26.1839 202.073 26.6427C201.27 27.1015 200.485 27.3308 199.717 27.3308ZM200.697 24.9885C201.235 24.9885 201.747 24.8253 202.232 24.4989C202.717 24.1724 203.163 23.7534 203.568 23.2417C203.974 22.73 204.327 22.1962 204.627 21.6404C204.936 21.0846 205.187 20.5773 205.381 20.1186L205.567 19.7083L205.818 19.1393C205.298 19.1481 204.742 19.2628 204.151 19.4834C203.136 19.8274 202.249 20.4362 201.491 21.3096C200.741 22.1742 200.326 23.224 200.247 24.4592C200.247 24.8121 200.397 24.9885 200.697 24.9885Z" fill="white"/>
<path d="M4.27732 15.8959L1.12614 14.2915C0.879648 14.7758 0.669729 15.2835 0.502687 15.8007L3.86748 16.8887C3.97744 16.5486 4.11501 16.2145 4.27732 15.8959Z" fill="white"/>
<path d="M6.95336 13.0686L8.69876 16.0759C8.95366 15.9281 9.22648 15.8144 9.51029 15.7381L8.60698 12.3802C8.83685 12.3184 9.07047 12.2673 9.3054 12.2302L8.75031 8.73756C8.21342 8.82279 7.67994 8.95143 7.16433 9.11952L8.24369 12.4275C7.90036 12.5396 7.56603 12.6788 7.24405 12.8434L5.65754 9.74667C5.17509 9.99394 4.70842 10.2812 4.2699 10.6014L6.35462 13.4577C6.54665 13.3177 6.74761 13.1883 6.95336 13.0686Z" fill="white"/>
<path d="M16.3197 15.5608L13.3135 17.3078C13.4616 17.5624 13.5752 17.8355 13.6518 18.1188L17.0095 17.2139C17.0713 17.4438 17.1223 17.6771 17.1597 17.9118L20.6518 17.3556C20.5663 16.819 20.4374 16.2853 20.2688 15.7694L16.9613 16.8508C16.849 16.5076 16.7098 16.1735 16.5449 15.8515L19.6406 14.2629C19.3933 13.7809 19.1055 13.3143 18.7854 12.876L15.9299 14.9621C16.0701 15.1541 16.2001 15.3548 16.3197 15.5608Z" fill="white"/>
<path d="M15.0941 9.73352C14.6093 9.4873 14.1016 9.27763 13.585 9.11085L12.4988 12.4762C12.8386 12.5859 13.1727 12.7237 13.4918 12.8858L15.0941 9.73352Z" fill="white"/>
<path d="M13.838 13.0067L12.0726 16.0705C12.3283 16.2179 12.564 16.3983 12.7737 16.6072L17.725 11.639C17.3409 11.2562 16.9237 10.9008 16.4849 10.5825L14.4428 13.3989C14.2481 13.2579 14.0463 13.1269 13.838 13.0067Z" fill="white"/>
<path d="M4.39969 15.5498L7.46273 17.3171C7.61004 17.0617 7.79103 16.8257 8.00019 16.6158L3.03415 11.6626C2.65114 12.0467 2.29548 12.4636 1.97717 12.9022L4.79244 14.9456C4.65144 15.14 4.51991 15.3415 4.39969 15.5498Z" fill="white"/>
<path d="M11.4629 12.171L11.9972 8.73303C11.4692 8.65095 10.9289 8.60939 10.391 8.60939H10.3828V15.6237H10.391C10.6866 15.6237 10.9792 15.6616 11.2606 15.7363L12.1676 12.3183C11.9356 12.2567 11.7005 12.2081 11.4629 12.171Z" fill="white"/>
<path d="M7.12721 18.1296L3.70978 17.2202C3.64797 17.4523 3.59904 17.6874 3.56195 17.925L0.124551 17.3891C0.0419502 17.9189 0.000123731 18.4614 0.000123731 19.0009H7.01432C7.01432 18.7047 7.05227 18.4114 7.12721 18.1296Z" fill="white"/>
<path d="M16.5046 22.1049L19.6557 23.7093C19.9022 23.225 20.1121 22.7173 20.2792 22.2001L16.9144 21.1121C16.8044 21.4522 16.6669 21.7863 16.5046 22.1049Z" fill="white"/>
<path d="M13.8277 24.9314L12.0823 21.9241C11.8274 22.0719 11.5546 22.1855 11.2708 22.2618L12.1741 25.6198C11.9439 25.6817 11.7106 25.7327 11.4757 25.7698L12.0305 29.2622C12.5674 29.1769 13.1009 29.0483 13.6165 28.8802L12.5371 25.5722C12.8807 25.4602 13.2148 25.321 13.5368 25.1563L15.1233 28.2531C15.6057 28.0058 16.0724 27.7185 16.5109 27.3984L14.4261 24.542C14.2341 24.682 14.0334 24.8117 13.8277 24.9314Z" fill="white"/>
<path d="M4.46243 22.4408L7.46896 20.6939C7.32085 20.4392 7.20717 20.1661 7.13064 19.8828L3.77295 20.7877C3.71113 20.5578 3.6601 20.3245 3.62275 20.0898L0.130373 20.6459C0.215868 21.1826 0.344766 21.7164 0.513387 22.2322L3.82083 21.1507C3.93316 21.4941 4.07232 21.8282 4.23726 22.1502L1.14157 23.7388C1.38885 24.2207 1.67664 24.6874 1.99678 25.1256L4.85229 23.0396C4.71208 22.8475 4.58212 22.6468 4.46243 22.4408Z" fill="white"/>
<path d="M5.68787 28.2675C6.17267 28.5138 6.68037 28.7234 7.19706 28.8902L8.28324 25.5249C7.94333 25.4152 7.60928 25.2773 7.29014 25.1152L5.68787 28.2675Z" fill="white"/>
<path d="M6.94249 24.9943L8.70792 21.9304C8.45222 21.7831 8.21649 21.6026 8.00682 21.3938L3.05554 26.362C3.43961 26.7447 3.85683 27.1001 4.2956 27.4184L6.33772 24.6021C6.53242 24.7431 6.73413 24.8741 6.94249 24.9943Z" fill="white"/>
<path d="M16.3826 22.4523L13.3195 20.6851C13.1722 20.9405 12.9912 21.1764 12.7821 21.3863L17.7479 26.3398C18.1309 25.9557 18.4865 25.5388 18.8049 25.1003L15.9896 23.0568C16.1306 22.8624 16.2624 22.6606 16.3826 22.4523Z" fill="white"/>
<path d="M9.52139 22.2637L8.61438 25.6817C8.84641 25.7432 9.08157 25.7919 9.31912 25.829L8.78513 29.2669C9.31309 29.349 9.85339 29.3906 10.3914 29.3906H10.3995V22.3763H10.3914C10.0957 22.3763 9.80287 22.3384 9.52139 22.2637Z" fill="white"/>
<path d="M13.768 19.0017C13.768 19.2979 13.7299 19.591 13.6549 19.8729L17.0723 20.7824C17.1342 20.5503 17.1831 20.3152 17.2201 20.0776L20.6578 20.6138C20.7404 20.0839 20.7822 19.5415 20.7822 19.0019L13.768 19.0017Z" fill="white"/>
</svg>
