<svg preserveAspectRatio="none" width="100%" height="100%" overflow="visible" style="display: block;" viewBox="0 0 193.602 21.8998" fill="none" xmlns="http://www.w3.org/2000/svg">
<g id="Group 2087328721">
<g id="Web3">
<path id="Vector" d="M56.7917 8.01135C57.5487 8.52714 58.1144 9.12612 58.4888 9.80829C58.8632 10.4821 59.0503 11.2392 59.0503 12.0794C59.0503 12.9862 58.8008 13.8264 58.3016 14.6001C57.8108 15.3655 57.0953 15.9478 56.1553 16.3471C55.2152 16.7381 53.984 16.9336 52.4616 16.9336C50.4816 16.9336 48.9925 16.6258 47.9942 16.0102C47.4368 15.6608 47.1581 15.2449 47.1581 14.7623C47.1581 14.3963 47.2787 14.0885 47.52 13.8389C47.7696 13.581 48.069 13.4521 48.4184 13.4521C48.6597 13.4521 48.9093 13.5353 49.1672 13.7017C49.5332 13.9512 49.8785 14.1176 50.2029 14.2008C50.7021 14.3173 51.3884 14.3755 52.2619 14.3755C53.751 14.3755 54.8284 14.1842 55.4939 13.8015C56.1594 13.4105 56.4922 12.8614 56.4922 12.1543C56.4922 11.6302 56.2967 11.1269 55.9057 10.6444C55.523 10.1535 55.0072 9.77501 54.3583 9.5088C53.984 9.35905 53.3517 9.25506 52.4616 9.19683C52.0373 9.17187 51.7087 9.04293 51.4757 8.80999C51.2511 8.56873 51.1388 8.2734 51.1388 7.924C51.1388 7.55796 51.2636 7.25015 51.5132 7.00057C51.7628 6.751 52.0789 6.62621 52.4616 6.62621C53.3101 6.62621 53.7635 6.62205 53.8217 6.61373C54.1545 6.58046 54.4873 6.47231 54.82 6.28929C55.1528 6.10626 55.419 5.85669 55.6187 5.54056C55.8267 5.21611 55.9307 4.88335 55.9307 4.54226C55.9307 4.00152 55.6894 3.53564 55.2069 3.14464C54.7327 2.74532 54.0172 2.54566 53.0605 2.54566C51.8293 2.54566 50.8892 2.90339 50.2403 3.61884C50.049 3.82681 49.8951 3.95992 49.7786 4.01816C49.6039 4.10967 49.4084 4.15542 49.1921 4.15542C48.8427 4.15542 48.5432 4.03063 48.2937 3.78106C48.0441 3.53148 47.9193 3.22368 47.9193 2.85763C47.9193 2.28361 48.302 1.72623 49.0673 1.18548C50.1821 0.395162 51.5756 2.43187e-06 53.2477 2.43187e-06C54.8284 2.43187e-06 56.097 0.449237 57.0537 1.34771C58.0104 2.24617 58.4888 3.32767 58.4888 4.59218C58.4888 5.24939 58.3474 5.86501 58.0645 6.43903C57.7817 7.00473 57.3574 7.52884 56.7917 8.01135Z" fill="var(--fill-0, black)"/>
<path id="Vector_2" d="M35.4131 0.377393V6.11761C36.037 5.70997 36.6693 5.40632 37.3098 5.20666C37.9587 4.99868 38.6118 4.8947 39.269 4.8947C41.041 4.8947 42.5426 5.50615 43.7738 6.72907C45.0051 7.95199 45.6207 9.42864 45.6207 11.159C45.6207 12.8145 45.0342 14.1997 43.8612 15.3144C42.6882 16.4209 41.1408 16.9741 39.2191 16.9741C38.5369 16.9741 37.8797 16.8868 37.2475 16.7121C36.6152 16.5374 36.0037 16.2795 35.4131 15.9384V16.5623H32.4182C31.8026 16.5623 31.3617 16.4458 31.0954 16.2129C30.8375 15.9717 30.7086 15.6597 30.7086 15.277C30.7086 14.9026 30.8417 14.599 31.1079 14.3661C31.3741 14.1248 31.8109 14.0042 32.4182 14.0042H32.8549V2.93553H32.4182C31.8026 2.93553 31.3617 2.81907 31.0954 2.58613C30.8375 2.34487 30.7086 2.0329 30.7086 1.65022C30.7086 1.27586 30.8375 0.972212 31.0954 0.739276C31.3617 0.49802 31.8026 0.377393 32.4182 0.377393H35.4131ZM43.0625 11.2339C43.0625 10.1774 42.6923 9.28305 41.9519 8.55097C41.2115 7.81888 40.3047 7.45284 39.2316 7.45284C38.1667 7.45284 37.2641 7.81888 36.5237 8.55097C35.7833 9.28305 35.4131 10.1649 35.4131 11.1965C35.4131 12.1365 35.7458 12.9102 36.4114 13.5175C37.0769 14.1165 38.017 14.416 39.2316 14.416C40.4462 14.416 41.3862 14.1165 42.0518 13.5175C42.7256 12.9102 43.0625 12.149 43.0625 11.2339Z" fill="var(--fill-0, black)"/>
<path id="Vector_3" d="M29.7103 12.1937H19.2157C19.4819 12.8593 19.9519 13.3959 20.6258 13.8035C21.3079 14.2111 22.2272 14.415 23.3836 14.415C24.332 14.415 25.5923 14.2111 27.1646 13.8035C27.8135 13.6371 28.2628 13.5539 28.5123 13.5539C28.8534 13.5539 29.1404 13.6746 29.3734 13.9158C29.6063 14.1571 29.7228 14.4607 29.7228 14.8268C29.7228 15.1595 29.598 15.4424 29.3484 15.6753C29.0157 15.9831 28.2045 16.2785 26.9151 16.5613C25.6256 16.8358 24.386 16.9731 23.1964 16.9731C21.1499 16.9731 19.511 16.3949 18.2798 15.2386C17.0569 14.0822 16.4454 12.6596 16.4454 10.9708C16.4454 9.17389 17.1068 7.71388 18.4295 6.59079C19.7606 5.45939 21.2913 4.89369 23.0217 4.89369C24.0616 4.89369 25.0141 5.07671 25.8793 5.44275C26.7528 5.80879 27.4017 6.20395 27.826 6.62823C28.425 7.24385 28.92 8.00505 29.311 8.91184C29.5772 9.5441 29.7103 10.2762 29.7103 11.1081V12.1937ZM26.8776 9.63561C26.4866 8.90352 25.975 8.35862 25.3427 8.00089C24.7105 7.63485 23.9576 7.45183 23.0841 7.45183C22.2189 7.45183 21.4702 7.63485 20.8379 8.00089C20.2057 8.35862 19.6899 8.90352 19.2906 9.63561H26.8776Z" fill="var(--fill-0, black)"/>
<path id="Vector_4" d="M7.94899 9.29817L5.57803 16.5608H2.70792L1.18551 3.99471C0.794509 3.9448 0.499179 3.81169 0.299519 3.59539C0.099859 3.37078 2.90364e-05 3.08792 2.90364e-05 2.74684C2.90364e-05 2.34752 0.128976 2.02723 0.38687 1.78598C0.653083 1.54472 1.094 1.42409 1.70962 1.42409L5.11631 1.43657C5.73193 1.43657 6.16869 1.55304 6.42658 1.78598C6.69279 2.01891 6.8259 2.32672 6.8259 2.7094C6.8259 3.09208 6.69279 3.40405 6.42658 3.64531C6.16869 3.87824 5.73193 3.99471 5.11631 3.99471H3.78109L4.62964 11.145L6.63872 5.19267H9.29669L11.2933 11.145L12.1418 3.99471H10.8066C10.191 3.99471 9.75009 3.87824 9.48387 3.64531C9.22598 3.40405 9.09703 3.09208 9.09703 2.7094C9.09703 2.32672 9.22598 2.01891 9.48387 1.78598C9.75009 1.54472 10.191 1.42409 10.8066 1.42409L14.2008 1.43657C14.8165 1.43657 15.2532 1.55304 15.5111 1.78598C15.7773 2.01891 15.9104 2.32672 15.9104 2.7094C15.9104 3.03385 15.8064 3.31254 15.5985 3.54548C15.3905 3.77841 15.091 3.92816 14.7 3.99471L13.2275 16.5608H10.4073L7.94899 9.29817Z" fill="var(--fill-0, black)"/>
</g>
<path id="." d="M67.7446 15.278C67.7446 15.7605 67.5741 16.164 67.233 16.4884C66.8919 16.8129 66.4219 16.9751 65.8229 16.9751C65.2239 16.9751 64.7539 16.8129 64.4128 16.4884C64.0717 16.164 63.9012 15.7605 63.9012 15.278C63.9012 14.7955 64.0717 14.392 64.4128 14.0676C64.7539 13.7431 65.2239 13.5809 65.8229 13.5809C66.4219 13.5809 66.8919 13.7431 67.233 14.0676C67.5741 14.392 67.7446 14.7955 67.7446 15.278Z" fill="var(--fill-0, #1A1A1A)"/>
<g id="insight">
<path id="Vector_5" d="M162.233 7.78758V12.9163C162.233 13.4654 162.345 13.8273 162.57 14.002C162.919 14.2765 163.543 14.4138 164.441 14.4138C165.748 14.4138 166.954 14.1351 168.06 13.5777C168.485 13.3614 168.817 13.2533 169.059 13.2533C169.391 13.2533 169.678 13.3781 169.92 13.6276C170.169 13.8772 170.294 14.1809 170.294 14.5386C170.294 14.8713 170.161 15.1584 169.895 15.3996C169.487 15.7906 168.68 16.1525 167.474 16.4853C166.276 16.8097 165.265 16.9719 164.441 16.9719C162.853 16.9719 161.659 16.6308 160.86 15.9487C160.07 15.2582 159.675 14.4138 159.675 13.4155V7.78758H158.751C158.136 7.78758 157.695 7.67111 157.428 7.43818C157.171 7.19692 157.042 6.88495 157.042 6.50227C157.042 6.12791 157.171 5.82426 157.428 5.59132C157.695 5.35007 158.136 5.22944 158.751 5.22944H159.675V2.92087C159.675 2.30526 159.791 1.8685 160.024 1.61061C160.265 1.34439 160.577 1.21129 160.96 1.21129C161.334 1.21129 161.638 1.34439 161.871 1.61061C162.112 1.8685 162.233 2.30526 162.233 2.92087V5.22944H166.962C167.578 5.22944 168.015 5.35007 168.272 5.59132C168.539 5.82426 168.672 6.13207 168.672 6.51475C168.672 6.88911 168.539 7.19692 168.272 7.43818C168.015 7.67111 167.578 7.78758 166.962 7.78758H162.233Z" fill="var(--fill-0, #01DB83)"/>
<path id="Vector_6" d="M147.413 0.377232V5.83044C147.945 5.51431 148.482 5.28138 149.022 5.13163C149.572 4.97357 150.125 4.89453 150.682 4.89453C151.564 4.89453 152.35 5.04428 153.041 5.34377C153.731 5.64326 154.301 6.11745 154.75 6.76634C155.208 7.40692 155.437 8.21804 155.437 9.1997V14.004C156.085 14.004 156.51 14.0664 156.709 14.1912C157.109 14.4491 157.308 14.8151 157.308 15.2893C157.308 15.6637 157.179 15.9715 156.921 16.2127C156.664 16.4457 156.227 16.5622 155.611 16.5622H152.691C152.084 16.5622 151.647 16.4457 151.381 16.2127C151.123 15.9715 150.994 15.6595 150.994 15.2768C150.994 14.811 151.194 14.4491 151.593 14.1912C151.801 14.0581 152.225 13.9957 152.866 14.004V9.3744C152.866 8.71719 152.716 8.25547 152.417 7.98926C152.026 7.63154 151.447 7.45268 150.682 7.45268C150.116 7.45268 149.613 7.56498 149.172 7.7896C148.74 8.0059 148.153 8.48009 147.413 9.21218V14.004C148.07 14.004 148.494 14.0664 148.686 14.1912C149.093 14.4491 149.297 14.8151 149.297 15.2893C149.297 15.6637 149.164 15.9715 148.898 16.2127C148.64 16.4457 148.203 16.5622 147.587 16.5622H144.68C144.064 16.5622 143.623 16.4457 143.357 16.2127C143.099 15.9715 142.97 15.6595 142.97 15.2768C142.97 14.811 143.174 14.4491 143.582 14.1912C143.781 14.0581 144.206 13.9957 144.855 14.004V2.93537H144.418C143.802 2.93537 143.361 2.8189 143.095 2.58597C142.837 2.34471 142.708 2.03274 142.708 1.65006C142.708 1.2757 142.837 0.972051 143.095 0.739115C143.361 0.497859 143.802 0.377232 144.418 0.377232H147.413Z" fill="var(--fill-0, #01DB83)"/>
<path id="Vector_7" d="M137.517 5.98945V5.22825H140.512C141.128 5.22825 141.565 5.34888 141.822 5.59013C142.089 5.82307 142.222 6.13088 142.222 6.51356C142.222 6.88792 142.089 7.19573 141.822 7.43699C141.565 7.66992 141.128 7.78639 140.512 7.78639H140.075V17.0955C140.075 17.994 139.884 18.776 139.501 19.4415C139.127 20.1154 138.549 20.6936 137.767 21.1761C136.985 21.6586 136.103 21.8998 135.121 21.8998H132.226C131.611 21.8998 131.17 21.7792 130.904 21.538C130.646 21.305 130.517 21.0014 130.517 20.627C130.517 20.2443 130.646 19.9324 130.904 19.6911C131.17 19.4582 131.611 19.3417 132.226 19.3417H135.046C135.828 19.3417 136.436 19.1296 136.868 18.7053C137.301 18.281 137.517 17.7444 137.517 17.0955V15.8477C136.952 16.2137 136.373 16.4882 135.783 16.6712C135.2 16.8543 134.601 16.9458 133.986 16.9458C132.247 16.9458 130.791 16.3676 129.618 15.2112C128.445 14.0466 127.859 12.6115 127.859 10.9061C127.859 9.19233 128.445 7.75727 129.618 6.60091C130.791 5.43623 132.247 4.85389 133.986 4.85389C134.635 4.85389 135.25 4.94956 135.833 5.1409C136.423 5.32392 136.985 5.60677 137.517 5.98945ZM137.505 10.8936C137.505 9.95353 137.155 9.13825 136.457 8.44776C135.766 7.75727 134.934 7.41203 133.961 7.41203C132.987 7.41203 132.151 7.75727 131.453 8.44776C130.762 9.13825 130.417 9.95353 130.417 10.8936C130.417 11.842 130.762 12.6614 131.453 13.3519C132.151 14.0341 132.987 14.3752 133.961 14.3752C134.934 14.3752 135.766 14.0341 136.457 13.3519C137.155 12.6614 137.505 11.842 137.505 10.8936Z" fill="var(--fill-0, #01DB83)"/>
<path id="Vector_8" d="M121.963 0.377232V3.08512H118.918V0.377232H121.963ZM122.312 5.23146V14.004H125.382C125.997 14.004 126.434 14.1246 126.692 14.3659C126.958 14.5988 127.091 14.9066 127.091 15.2893C127.091 15.6637 126.958 15.9715 126.692 16.2127C126.434 16.4457 125.997 16.5622 125.382 16.5622H116.684C116.069 16.5622 115.628 16.4457 115.361 16.2127C115.104 15.9715 114.975 15.6595 114.975 15.2768C114.975 14.9025 115.104 14.5988 115.361 14.3659C115.628 14.1246 116.069 14.004 116.684 14.004H119.754V7.7896H117.695C117.088 7.7896 116.651 7.67313 116.385 7.4402C116.118 7.19894 115.985 6.88697 115.985 6.50429C115.985 6.12993 116.114 5.82628 116.372 5.59334C116.638 5.35209 117.079 5.23146 117.695 5.23146H122.312Z" fill="var(--fill-0, #01DB83)"/>
<path id="Vector_9" d="M110.993 8.22535C110.578 7.96745 110.141 7.77611 109.683 7.65133C109.226 7.51822 108.747 7.45167 108.248 7.45167C107.258 7.45167 106.472 7.61389 105.89 7.93834C105.632 8.07976 105.503 8.23367 105.503 8.40005C105.503 8.59139 105.678 8.77857 106.027 8.96159C106.293 9.0947 106.888 9.22365 107.811 9.34843C109.509 9.58137 110.69 9.81431 111.355 10.0472C112.229 10.3551 112.903 10.8126 113.377 11.4199C113.851 12.0272 114.088 12.6678 114.088 13.3416C114.088 14.2567 113.685 15.0221 112.878 15.6377C111.721 16.5279 110.22 16.9729 108.373 16.9729C107.633 16.9729 106.946 16.9064 106.314 16.7733C105.69 16.6485 105.116 16.4613 104.592 16.2117C104.467 16.3199 104.334 16.4031 104.193 16.4613C104.051 16.5195 103.906 16.5487 103.756 16.5487C103.357 16.5487 103.036 16.4197 102.795 16.1618C102.562 15.8956 102.446 15.4547 102.446 14.8391V13.978C102.446 13.3624 102.562 12.9257 102.795 12.6678C103.036 12.4016 103.348 12.2685 103.731 12.2685C104.039 12.2685 104.297 12.3558 104.505 12.5305C104.713 12.6969 104.875 12.9881 104.991 13.404C105.382 13.7368 105.852 13.9905 106.401 14.1652C106.95 14.3316 107.583 14.4148 108.298 14.4148C109.471 14.4148 110.382 14.2318 111.031 13.8657C111.339 13.6827 111.493 13.4914 111.493 13.2917C111.493 12.9589 111.272 12.6844 110.831 12.4681C110.39 12.2518 109.479 12.0688 108.098 11.9191C106.044 11.7028 104.671 11.2868 103.98 10.6712C103.29 10.0639 102.945 9.31516 102.945 8.42501C102.945 7.5099 103.332 6.7487 104.105 6.1414C105.153 5.30948 106.526 4.89353 108.223 4.89353C108.814 4.89353 109.38 4.95176 109.92 5.06823C110.469 5.17638 110.993 5.34692 111.493 5.57986C111.651 5.46339 111.796 5.37604 111.929 5.3178C112.071 5.25957 112.2 5.23045 112.316 5.23045C112.666 5.23045 112.957 5.36356 113.19 5.62977C113.423 5.88766 113.539 6.32442 113.539 6.94004V7.56398C113.539 8.12136 113.473 8.49988 113.339 8.69954C113.073 9.08222 112.711 9.27356 112.254 9.27356C111.946 9.27356 111.676 9.17789 111.443 8.98655C111.21 8.79521 111.06 8.54148 110.993 8.22535Z" fill="var(--fill-0, #01DB83)"/>
<path id="Vector_10" d="M91.1367 5.23045V6.09148C91.6026 5.69217 92.1142 5.39268 92.6716 5.19302C93.2373 4.99336 93.8488 4.89353 94.506 4.89353C96.0201 4.89353 97.218 5.36356 98.0998 6.30362C98.7987 7.05235 99.1481 8.03401 99.1481 9.24861V14.003C99.6888 14.003 100.088 14.1236 100.346 14.3649C100.604 14.5978 100.733 14.9056 100.733 15.2883C100.733 15.6627 100.6 15.9705 100.334 16.2117C100.076 16.4447 99.6389 16.5611 99.0233 16.5611H96.7147C96.0991 16.5611 95.6582 16.4447 95.392 16.2117C95.1341 15.9705 95.0051 15.6585 95.0051 15.2758C95.0051 14.9015 95.1341 14.5978 95.392 14.3649C95.6498 14.1236 96.0492 14.003 96.5899 14.003V9.17373C96.5899 8.61635 96.4402 8.20871 96.1407 7.95082C95.7497 7.61805 95.1632 7.45167 94.3812 7.45167C93.7905 7.45167 93.2706 7.56814 92.8213 7.80107C92.3804 8.02569 91.8189 8.5082 91.1367 9.24861V14.003C91.7939 14.003 92.2182 14.0654 92.4095 14.1902C92.8172 14.4398 93.021 14.8058 93.021 15.2883C93.021 15.6627 92.8879 15.9705 92.6217 16.2117C92.3638 16.4447 91.927 16.5611 91.3114 16.5611H88.4039C87.7882 16.5611 87.3473 16.4447 87.0811 16.2117C86.8232 15.9705 86.6943 15.6585 86.6943 15.2758C86.6943 14.81 86.8939 14.4481 87.2933 14.1902C87.4929 14.0654 87.9214 14.003 88.5786 14.003V7.78859C88.0378 7.78859 87.6385 7.66797 87.3806 7.42671C87.1227 7.18545 86.9938 6.87765 86.9938 6.50328C86.9938 6.12892 87.1227 5.82527 87.3806 5.59234C87.6468 5.35108 88.0877 5.23045 88.7034 5.23045H91.1367Z" fill="var(--fill-0, #01DB83)"/>
<path id="Vector_11" d="M80.1444 0.377197V3.08508H77.0996V0.377197H80.1444ZM80.4938 5.23143V14.004H83.5636C84.1792 14.004 84.616 14.1246 84.8738 14.3659C85.1401 14.5988 85.2732 14.9066 85.2732 15.2893C85.2732 15.6637 85.1401 15.9715 84.8738 16.2127C84.616 16.4457 84.1792 16.5621 83.5636 16.5621H74.8659C74.2503 16.5621 73.8094 16.4457 73.5432 16.2127C73.2853 15.9715 73.1563 15.6595 73.1563 15.2768C73.1563 14.9024 73.2853 14.5988 73.5432 14.3659C73.8094 14.1246 74.2503 14.004 74.8659 14.004H77.9357V7.78957H75.8767C75.2694 7.78957 74.8326 7.6731 74.5664 7.44016C74.3002 7.19891 74.1671 6.88694 74.1671 6.50426C74.1671 6.1299 74.296 5.82625 74.5539 5.59331C74.8201 5.35205 75.2611 5.23143 75.8767 5.23143H80.4938Z" fill="var(--fill-0, #01DB83)"/>
</g>
<g id="()">
<path id="Vector_12" d="M193.602 10.3477C193.602 11.8036 193.36 13.2802 192.878 14.7777C192.52 15.8758 191.967 17.0946 191.218 18.434C190.677 19.399 190.278 19.9938 190.02 20.2184C189.762 20.443 189.475 20.5553 189.159 20.5553C188.793 20.5553 188.485 20.4306 188.236 20.181C187.986 19.9314 187.861 19.6319 187.861 19.2825C187.861 19.0329 187.961 18.7459 188.161 18.4215C189.059 16.949 189.712 15.568 190.12 14.2785C190.536 12.9891 190.744 11.6788 190.744 10.3477C190.744 9.02499 190.536 7.71888 190.12 6.42941C189.712 5.13994 189.059 3.75896 188.161 2.28647C187.961 1.9537 187.861 1.66669 187.861 1.42544C187.861 1.07603 187.986 0.776543 188.236 0.526969C188.485 0.277394 188.793 0.152606 189.159 0.152606C189.467 0.152606 189.737 0.252436 189.97 0.452096C190.303 0.734948 190.744 1.388 191.293 2.41126C192.083 3.88375 192.624 5.09419 192.915 6.04257C193.373 7.51506 193.602 8.95012 193.602 10.3477Z" fill="var(--fill-0, #1A1A1A)"/>
<path id="Vector_13" d="M176.246 10.3479C176.246 8.89202 176.487 7.41953 176.97 5.9304C177.327 4.83227 177.881 3.60936 178.629 2.26165C179.17 1.29663 179.569 0.705971 179.827 0.489672C180.085 0.265055 180.372 0.152746 180.688 0.152746C181.054 0.152746 181.362 0.277534 181.612 0.527109C181.861 0.776683 181.986 1.07617 181.986 1.42558C181.986 1.66683 181.886 1.95384 181.687 2.28661C180.788 3.7591 180.131 5.14008 179.715 6.42955C179.307 7.71902 179.103 9.02513 179.103 10.3479C179.103 11.6789 179.307 12.9892 179.715 14.2787C180.131 15.5682 180.788 16.9491 181.687 18.4216C181.886 18.7461 181.986 19.0331 181.986 19.2827C181.986 19.6321 181.861 19.9316 181.612 20.1811C181.362 20.4307 181.054 20.5555 180.688 20.5555C180.38 20.5555 180.11 20.4557 179.877 20.256C179.544 19.9648 179.103 19.3118 178.554 18.2968C177.764 16.8243 177.223 15.6097 176.932 14.653C176.475 13.1889 176.246 11.7538 176.246 10.3479Z" fill="var(--fill-0, #1A1A1A)"/>
</g>
</g>
</svg>
